<?xml version="1.0" encoding="utf-8" standalone="no"?>
<!DOCTYPE svg PUBLIC "-//W3C//DTD SVG 1.1//EN"
  "http://www.w3.org/Graphics/SVG/1.1/DTD/svg11.dtd">
<svg xmlns:xlink="http://www.w3.org/1999/xlink" width="576pt" height="576pt" viewBox="0 0 576 576" xmlns="http://www.w3.org/2000/svg" version="1.1">
 <metadata>
  <rdf:RDF xmlns:dc="http://purl.org/dc/elements/1.1/" xmlns:cc="http://creativecommons.org/ns#" xmlns:rdf="http://www.w3.org/1999/02/22-rdf-syntax-ns#">
   <cc:Work>
    <dc:type rdf:resource="http://purl.org/dc/dcmitype/StillImage"/>
    <dc:date>2024-10-24T13:00:18.800226</dc:date>
    <dc:format>image/svg+xml</dc:format>
    <dc:creator>
     <cc:Agent>
      <dc:title>Matplotlib v3.9.2, https://matplotlib.org/</dc:title>
     </cc:Agent>
    </dc:creator>
   </cc:Work>
  </rdf:RDF>
 </metadata>
 <defs>
  <style type="text/css">*{stroke-linejoin: round; stroke-linecap: butt}</style>
 </defs>
 <g id="figure_1">
  <g id="patch_1">
   <path d="M 0 576 
L 576 576 
L 576 0 
L 0 0 
z
" style="fill: #ffffff"/>
  </g>
  <g id="axes_1">
   <g id="patch_2">
    <path d="M 72 512.64 
L 518.4 512.64 
L 518.4 69.12 
L 72 69.12 
z
" style="fill: #ffffff"/>
   </g>
   <g id="matplotlib.axis_1">
    <g id="xtick_1">
     <g id="line2d_1">
      <defs>
       <path id="mc23a178d6d" d="M 0 0 
L 0 3.5 
" style="stroke: #000000; stroke-width: 0.8"/>
      </defs>
      <g>
       <use xlink:href="#mc23a178d6d" x="72" y="512.64" style="stroke: #000000; stroke-width: 0.8"/>
      </g>
     </g>
     <g id="text_1">
      <!-- $\mathdefault{0.0}$ -->
      <g transform="translate(64.521179 527.94218) scale(0.12 -0.12)">
       <defs>
        <path id="CMR17-30" d="M 2688 2025 
C 2688 2416 2682 3080 2413 3591 
C 2176 4039 1798 4198 1466 4198 
C 1158 4198 768 4058 525 3597 
C 269 3118 243 2524 243 2025 
C 243 1661 250 1106 448 619 
C 723 -39 1216 -128 1466 -128 
C 1760 -128 2208 -7 2470 600 
C 2662 1042 2688 1559 2688 2025 
z
M 1466 -26 
C 1056 -26 813 325 723 812 
C 653 1188 653 1738 653 2096 
C 653 2588 653 2997 736 3387 
C 858 3929 1216 4096 1466 4096 
C 1728 4096 2067 3923 2189 3400 
C 2272 3036 2278 2607 2278 2096 
C 2278 1680 2278 1169 2202 792 
C 2067 95 1690 -26 1466 -26 
z
" transform="scale(0.015625)"/>
        <path id="CMMI12-3a" d="M 1178 307 
C 1178 492 1024 619 870 619 
C 685 619 557 466 557 313 
C 557 128 710 0 864 0 
C 1050 0 1178 153 1178 307 
z
" transform="scale(0.015625)"/>
       </defs>
       <use xlink:href="#CMR17-30" transform="scale(0.996264)"/>
       <use xlink:href="#CMMI12-3a" transform="translate(45.690477 0) scale(0.996264)"/>
       <use xlink:href="#CMR17-30" transform="translate(72.787654 0) scale(0.996264)"/>
      </g>
     </g>
    </g>
    <g id="xtick_2">
     <g id="line2d_2">
      <g>
       <use xlink:href="#mc23a178d6d" x="161.28" y="512.64" style="stroke: #000000; stroke-width: 0.8"/>
      </g>
     </g>
     <g id="text_2">
      <!-- $\mathdefault{0.2}$ -->
      <g transform="translate(153.801179 527.94218) scale(0.12 -0.12)">
       <defs>
        <path id="CMR17-32" d="M 2669 989 
L 2554 989 
C 2490 536 2438 459 2413 420 
C 2381 369 1920 369 1830 369 
L 602 369 
C 832 619 1280 1072 1824 1597 
C 2214 1967 2669 2402 2669 3035 
C 2669 3790 2067 4224 1395 4224 
C 691 4224 262 3604 262 3030 
C 262 2780 448 2748 525 2748 
C 589 2748 781 2787 781 3010 
C 781 3207 614 3264 525 3264 
C 486 3264 448 3258 422 3245 
C 544 3790 915 4058 1306 4058 
C 1862 4058 2227 3617 2227 3035 
C 2227 2479 1901 2000 1536 1584 
L 262 146 
L 262 0 
L 2515 0 
L 2669 989 
z
" transform="scale(0.015625)"/>
       </defs>
       <use xlink:href="#CMR17-30" transform="scale(0.996264)"/>
       <use xlink:href="#CMMI12-3a" transform="translate(45.690477 0) scale(0.996264)"/>
       <use xlink:href="#CMR17-32" transform="translate(72.787654 0) scale(0.996264)"/>
      </g>
     </g>
    </g>
    <g id="xtick_3">
     <g id="line2d_3">
      <g>
       <use xlink:href="#mc23a178d6d" x="250.56" y="512.64" style="stroke: #000000; stroke-width: 0.8"/>
      </g>
     </g>
     <g id="text_3">
      <!-- $\mathdefault{0.4}$ -->
      <g transform="translate(243.081179 527.94218) scale(0.12 -0.12)">
       <defs>
        <path id="CMR17-34" d="M 2150 4122 
C 2150 4256 2144 4256 2029 4256 
L 128 1254 
L 128 1088 
L 1779 1088 
L 1779 457 
C 1779 224 1766 160 1318 160 
L 1197 160 
L 1197 0 
C 1402 0 1747 0 1965 0 
C 2182 0 2528 0 2733 0 
L 2733 160 
L 2611 160 
C 2163 160 2150 224 2150 457 
L 2150 1088 
L 2803 1088 
L 2803 1254 
L 2150 1254 
L 2150 4122 
z
M 1798 3703 
L 1798 1254 
L 256 1254 
L 1798 3703 
z
" transform="scale(0.015625)"/>
       </defs>
       <use xlink:href="#CMR17-30" transform="scale(0.996264)"/>
       <use xlink:href="#CMMI12-3a" transform="translate(45.690477 0) scale(0.996264)"/>
       <use xlink:href="#CMR17-34" transform="translate(72.787654 0) scale(0.996264)"/>
      </g>
     </g>
    </g>
    <g id="xtick_4">
     <g id="line2d_4">
      <g>
       <use xlink:href="#mc23a178d6d" x="339.84" y="512.64" style="stroke: #000000; stroke-width: 0.8"/>
      </g>
     </g>
     <g id="text_4">
      <!-- $\mathdefault{0.6}$ -->
      <g transform="translate(332.361179 527.94218) scale(0.12 -0.12)">
       <defs>
        <path id="CMR17-36" d="M 678 2176 
C 678 3690 1395 4032 1811 4032 
C 1946 4032 2272 4009 2400 3776 
C 2298 3776 2106 3776 2106 3553 
C 2106 3381 2246 3323 2336 3323 
C 2394 3323 2566 3348 2566 3560 
C 2566 3954 2246 4179 1805 4179 
C 1043 4179 243 3390 243 1984 
C 243 253 966 -128 1478 -128 
C 2099 -128 2688 427 2688 1283 
C 2688 2081 2170 2662 1517 2662 
C 1126 2662 838 2407 678 1960 
L 678 2176 
z
M 1478 25 
C 691 25 691 1200 691 1436 
C 691 1896 909 2560 1504 2560 
C 1613 2560 1926 2560 2138 2120 
C 2253 1870 2253 1609 2253 1289 
C 2253 944 2253 690 2118 434 
C 1978 171 1773 25 1478 25 
z
" transform="scale(0.015625)"/>
       </defs>
       <use xlink:href="#CMR17-30" transform="scale(0.996264)"/>
       <use xlink:href="#CMMI12-3a" transform="translate(45.690477 0) scale(0.996264)"/>
       <use xlink:href="#CMR17-36" transform="translate(72.787654 0) scale(0.996264)"/>
      </g>
     </g>
    </g>
    <g id="xtick_5">
     <g id="line2d_5">
      <g>
       <use xlink:href="#mc23a178d6d" x="429.12" y="512.64" style="stroke: #000000; stroke-width: 0.8"/>
      </g>
     </g>
     <g id="text_5">
      <!-- $\mathdefault{0.8}$ -->
      <g transform="translate(421.641179 527.94218) scale(0.12 -0.12)">
       <defs>
        <path id="CMR17-38" d="M 1741 2264 
C 2144 2467 2554 2773 2554 3263 
C 2554 3841 1990 4179 1472 4179 
C 890 4179 378 3759 378 3180 
C 378 3021 416 2747 666 2505 
C 730 2442 998 2251 1171 2130 
C 883 1983 211 1634 211 934 
C 211 279 838 -128 1459 -128 
C 2144 -128 2720 362 2720 1010 
C 2720 1590 2330 1857 2074 2029 
L 1741 2264 
z
M 902 2822 
C 851 2854 595 3051 595 3351 
C 595 3739 998 4032 1459 4032 
C 1965 4032 2336 3676 2336 3262 
C 2336 2669 1670 2331 1638 2331 
C 1632 2331 1626 2331 1574 2370 
L 902 2822 
z
M 2080 1519 
C 2176 1449 2483 1240 2483 851 
C 2483 381 2010 25 1472 25 
C 890 25 448 438 448 940 
C 448 1443 838 1862 1280 2060 
L 2080 1519 
z
" transform="scale(0.015625)"/>
       </defs>
       <use xlink:href="#CMR17-30" transform="scale(0.996264)"/>
       <use xlink:href="#CMMI12-3a" transform="translate(45.690477 0) scale(0.996264)"/>
       <use xlink:href="#CMR17-38" transform="translate(72.787654 0) scale(0.996264)"/>
      </g>
     </g>
    </g>
    <g id="xtick_6">
     <g id="line2d_6">
      <g>
       <use xlink:href="#mc23a178d6d" x="518.4" y="512.64" style="stroke: #000000; stroke-width: 0.8"/>
      </g>
     </g>
     <g id="text_6">
      <!-- $\mathdefault{1.0}$ -->
      <g transform="translate(510.921179 527.94218) scale(0.12 -0.12)">
       <defs>
        <path id="CMR17-31" d="M 1702 4058 
C 1702 4192 1696 4192 1606 4192 
C 1357 3916 979 3827 621 3827 
C 602 3827 570 3827 563 3808 
C 557 3795 557 3782 557 3648 
C 755 3648 1088 3686 1344 3839 
L 1344 461 
C 1344 236 1331 160 781 160 
L 589 160 
L 589 0 
C 896 0 1216 0 1523 0 
C 1830 0 2150 0 2458 0 
L 2458 160 
L 2266 160 
C 1715 160 1702 230 1702 458 
L 1702 4058 
z
" transform="scale(0.015625)"/>
       </defs>
       <use xlink:href="#CMR17-31" transform="scale(0.996264)"/>
       <use xlink:href="#CMMI12-3a" transform="translate(45.690477 0) scale(0.996264)"/>
       <use xlink:href="#CMR17-30" transform="translate(72.787654 0) scale(0.996264)"/>
      </g>
     </g>
    </g>
    <g id="text_7">
     <!-- F1-Score (Positive label: 1) -->
     <g transform="translate(224.933668 543.233152) scale(0.12 -0.12)">
      <defs>
       <path id="CMR17-46" d="M 3482 4325 
L 326 4325 
L 326 4160 
C 768 4160 838 4160 838 3874 
L 838 446 
C 838 160 768 160 326 160 
L 326 0 
C 512 0 870 0 1069 0 
C 1331 0 1638 0 1901 0 
L 1901 160 
L 1760 160 
C 1274 160 1261 223 1261 452 
L 1261 2075 
L 1837 2075 
C 2432 2075 2490 1865 2490 1332 
L 2605 1332 
L 2605 2987 
L 2490 2987 
C 2490 2450 2432 2240 1837 2240 
L 1261 2240 
L 1261 3911 
C 1261 4128 1274 4160 1530 4160 
L 2355 4160 
C 3322 4160 3430 3765 3520 2916 
L 3635 2916 
L 3482 4325 
z
" transform="scale(0.015625)"/>
       <path id="CMR17-2d" d="M 1632 1216 
L 1632 1496 
L 26 1496 
L 26 1216 
L 1632 1216 
z
" transform="scale(0.015625)"/>
       <path id="CMR17-53" d="M 2803 4290 
C 2803 4404 2797 4411 2758 4411 
C 2720 4411 2707 4385 2682 4328 
L 2490 3907 
C 2246 4257 1875 4416 1472 4416 
C 819 4416 294 3901 294 3253 
C 294 3056 339 2776 557 2510 
C 794 2218 1018 2167 1530 2033 
C 1722 1982 2042 1899 2106 1874 
C 2470 1722 2662 1341 2662 985 
C 2662 527 2336 38 1779 38 
C 1094 38 454 419 410 1311 
C 403 1413 397 1419 352 1419 
C 301 1419 294 1413 294 1285 
L 294 -1 
C 294 -115 301 -122 339 -122 
C 384 -122 397 -90 486 108 
C 493 127 493 140 614 381 
C 934 -39 1472 -128 1779 -128 
C 2477 -128 2970 451 2970 1124 
C 2970 1454 2848 1708 2778 1823 
C 2509 2230 2221 2306 1914 2382 
C 1869 2402 1856 2402 1498 2490 
C 1152 2579 1005 2624 845 2796 
C 666 2992 602 3196 602 3399 
C 602 3812 934 4263 1478 4263 
C 2157 4263 2579 3786 2675 2993 
C 2694 2878 2701 2872 2746 2872 
C 2803 2872 2803 2891 2803 2999 
L 2803 4290 
z
" transform="scale(0.015625)"/>
       <path id="CMR17-63" d="M 2234 2240 
C 2112 2240 1933 2240 1933 2017 
C 1933 1838 2080 1787 2163 1787 
C 2208 1787 2394 1807 2394 2024 
C 2394 2467 1958 2803 1466 2803 
C 787 2803 211 2178 211 1363 
C 211 516 813 -64 1466 -64 
C 2259 -64 2458 677 2458 748 
C 2458 774 2451 793 2406 793 
C 2362 793 2355 787 2330 703 
C 2163 180 1798 51 1523 51 
C 1114 51 621 427 621 1369 
C 621 2338 1094 2688 1472 2688 
C 1722 2688 2093 2573 2234 2240 
z
" transform="scale(0.015625)"/>
       <path id="CMR17-6f" d="M 2758 1356 
C 2758 2176 2163 2816 1466 2816 
C 768 2816 173 2176 173 1356 
C 173 551 768 -64 1466 -64 
C 2163 -64 2758 551 2758 1356 
z
M 1466 51 
C 1165 51 909 230 762 480 
C 602 767 582 1126 582 1408 
C 582 1677 595 2010 762 2298 
C 890 2509 1139 2714 1466 2714 
C 1754 2714 1997 2554 2150 2330 
C 2349 2029 2349 1607 2349 1408 
C 2349 1158 2336 775 2163 467 
C 1984 173 1709 51 1466 51 
z
" transform="scale(0.015625)"/>
       <path id="CMR17-72" d="M 960 1497 
C 960 2112 1222 2688 1702 2688 
C 1747 2688 1792 2682 1837 2662 
C 1837 2662 1696 2617 1696 2452 
C 1696 2298 1818 2234 1914 2234 
C 1990 2234 2131 2279 2131 2458 
C 2131 2663 1926 2790 1709 2790 
C 1222 2790 1011 2317 947 2093 
L 941 2093 
L 941 2790 
L 198 2720 
L 198 2554 
C 576 2554 634 2515 634 2208 
L 634 428 
C 634 184 608 153 198 153 
L 198 -13 
C 352 0 646 0 813 0 
C 998 0 1325 0 1498 -13 
L 1498 153 
C 1037 153 960 153 960 440 
L 960 1497 
z
" transform="scale(0.015625)"/>
       <path id="CMR17-65" d="M 2438 1472 
C 2464 1498 2464 1511 2464 1576 
C 2464 2238 2118 2816 1389 2816 
C 710 2816 173 2169 173 1383 
C 173 551 781 -64 1459 -64 
C 2176 -64 2458 607 2458 740 
C 2458 784 2419 784 2406 784 
C 2362 784 2355 771 2330 696 
C 2189 265 1837 51 1504 51 
C 1229 51 954 203 781 480 
C 582 803 582 1176 582 1472 
L 2438 1472 
z
M 589 1568 
C 634 2505 1126 2714 1382 2714 
C 1818 2714 2112 2297 2118 1568 
L 589 1568 
z
" transform="scale(0.015625)"/>
       <path id="CMR17-28" d="M 1958 -1561 
C 1958 -1555 1958 -1542 1939 -1523 
C 1645 -1224 858 -407 858 1581 
C 858 3569 1632 4379 1946 4697 
C 1946 4704 1958 4717 1958 4736 
C 1958 4755 1939 4768 1914 4768 
C 1843 4768 1299 4296 986 3594 
C 666 2887 576 2199 576 1588 
C 576 1128 621 351 1005 -471 
C 1312 -1135 1837 -1600 1914 -1600 
C 1946 -1600 1958 -1587 1958 -1561 
z
" transform="scale(0.015625)"/>
       <path id="CMR17-50" d="M 1267 2042 
L 2291 2042 
C 3117 2042 3718 2578 3718 3184 
C 3718 3791 3130 4352 2291 4352 
L 333 4352 
L 333 4186 
C 774 4186 845 4186 845 3899 
L 845 446 
C 845 160 774 160 333 160 
L 333 0 
C 518 0 858 0 1056 0 
C 1254 0 1594 0 1779 0 
L 1779 160 
C 1338 160 1267 160 1267 446 
L 1267 2042 
z
M 1254 2176 
L 1254 3938 
C 1254 4155 1267 4186 1523 4186 
L 2170 4186 
C 2995 4186 3232 3714 3232 3184 
C 3232 2604 2950 2176 2170 2176 
L 1254 2176 
z
" transform="scale(0.015625)"/>
       <path id="CMR17-73" d="M 1978 2697 
C 1978 2813 1971 2819 1933 2819 
C 1907 2819 1901 2813 1824 2717 
C 1805 2691 1747 2626 1728 2601 
C 1523 2819 1235 2819 1126 2819 
C 416 2819 160 2447 160 2076 
C 160 1498 813 1365 998 1325 
C 1402 1243 1542 1217 1677 1101 
C 1760 1025 1901 884 1901 654 
C 1901 384 1747 38 1158 38 
C 602 38 403 460 288 1021 
C 269 1110 269 1117 218 1117 
C 166 1117 160 1110 160 983 
L 160 63 
C 160 -51 166 -58 205 -58 
C 237 -58 243 -51 275 0 
C 314 57 410 211 448 276 
C 576 103 800 -64 1158 -64 
C 1792 -64 2131 283 2131 784 
C 2131 1112 1958 1285 1875 1362 
C 1683 1561 1459 1606 1190 1657 
C 838 1735 390 1825 390 2217 
C 390 2383 480 2737 1126 2737 
C 1811 2737 1850 2094 1862 1888 
C 1869 1856 1901 1849 1920 1849 
C 1978 1849 1978 1869 1978 1978 
L 1978 2697 
z
" transform="scale(0.015625)"/>
       <path id="CMR17-69" d="M 992 3909 
C 992 4049 877 4170 730 4170 
C 589 4170 467 4056 467 3909 
C 467 3769 582 3648 730 3648 
C 870 3648 992 3763 992 3909 
z
M 243 2706 
L 243 2541 
C 602 2541 653 2502 653 2197 
L 653 427 
C 653 184 627 153 218 153 
L 218 -13 
C 371 0 646 0 806 0 
C 960 0 1222 0 1370 -13 
L 1370 153 
C 992 153 979 191 979 420 
L 979 2776 
L 243 2706 
z
" transform="scale(0.015625)"/>
       <path id="CMR17-74" d="M 966 2560 
L 1862 2560 
L 1862 2725 
L 966 2725 
L 966 3904 
L 851 3904 
C 838 3245 614 2668 70 2668 
L 70 2560 
L 627 2560 
L 627 771 
C 627 650 627 -64 1370 -64 
C 1747 -64 1965 306 1965 777 
L 1965 1140 
L 1850 1140 
L 1850 783 
C 1850 344 1677 51 1408 51 
C 1222 51 966 178 966 758 
L 966 2560 
z
" transform="scale(0.015625)"/>
       <path id="CMR17-76" d="M 2502 2163 
C 2560 2304 2662 2560 3034 2560 
L 3034 2726 
C 2912 2726 2752 2726 2630 2726 
C 2496 2726 2285 2726 2157 2732 
L 2157 2566 
C 2317 2553 2406 2477 2406 2311 
C 2406 2253 2406 2240 2368 2151 
L 1664 377 
L 902 2286 
C 864 2369 864 2381 864 2407 
C 864 2560 1075 2560 1171 2560 
L 1171 2732 
C 1018 2726 736 2726 576 2726 
C 403 2726 205 2726 64 2732 
L 64 2560 
C 307 2560 442 2560 518 2362 
L 1446 44 
C 1485 -51 1491 -64 1549 -64 
C 1606 -64 1613 -51 1651 44 
L 2502 2163 
z
" transform="scale(0.015625)"/>
       <path id="CMR17-6c" d="M 979 4396 
L 218 4326 
L 218 4160 
C 595 4160 653 4122 653 3817 
L 653 426 
C 653 184 627 153 218 153 
L 218 -13 
C 371 0 653 0 813 0 
C 979 0 1261 0 1414 -13 
L 1414 153 
C 1005 153 979 178 979 426 
L 979 4396 
z
" transform="scale(0.015625)"/>
       <path id="CMR17-61" d="M 2304 1653 
C 2304 2072 2304 2294 2035 2543 
C 1798 2752 1523 2816 1306 2816 
C 800 2816 435 2407 435 1971 
C 435 1728 627 1728 666 1728 
C 749 1728 896 1778 896 1954 
C 896 2112 774 2181 666 2181 
C 640 2181 608 2174 589 2168 
C 723 2592 1069 2714 1293 2714 
C 1613 2714 1965 2429 1965 1885 
L 1965 1600 
C 1587 1600 1133 1549 774 1357 
C 371 1133 256 813 256 570 
C 256 77 832 -64 1171 -64 
C 1523 -64 1850 139 1990 511 
C 2003 233 2182 -18 2464 -18 
C 2598 -18 2938 70 2938 567 
L 2938 920 
L 2822 920 
L 2822 562 
C 2822 178 2650 128 2566 128 
C 2304 128 2304 458 2304 738 
L 2304 1653 
z
M 1965 870 
C 1965 317 1568 38 1216 38 
C 896 38 646 275 646 570 
C 646 761 730 1100 1101 1305 
C 1408 1478 1760 1504 1965 1504 
L 1965 870 
z
" transform="scale(0.015625)"/>
       <path id="CMR17-62" d="M 960 4396 
L 198 4326 
L 198 4160 
C 576 4160 634 4122 634 3817 
L 634 -13 
L 749 -13 
L 934 441 
C 1120 141 1395 -64 1766 -64 
C 2406 -64 3053 500 3053 1370 
C 3053 2188 2477 2790 1830 2790 
C 1434 2790 1152 2579 960 2330 
L 960 4396 
z
M 973 2004 
C 973 2118 973 2138 1062 2272 
C 1312 2657 1670 2688 1792 2688 
C 1984 2688 2643 2585 2643 1376 
C 2643 108 1888 38 1734 38 
C 1536 38 1248 114 1043 486 
C 973 608 973 621 973 735 
L 973 2004 
z
" transform="scale(0.015625)"/>
       <path id="CMR17-3a" d="M 1062 2491 
C 1062 2650 934 2752 800 2752 
C 672 2752 538 2650 538 2491 
C 538 2332 666 2230 800 2230 
C 928 2230 1062 2332 1062 2491 
z
M 1062 261 
C 1062 420 934 522 800 522 
C 672 522 538 420 538 261 
C 538 102 666 0 800 0 
C 928 0 1062 102 1062 261 
z
" transform="scale(0.015625)"/>
       <path id="CMR17-29" d="M 1683 1581 
C 1683 2040 1638 2817 1254 3639 
C 947 4303 422 4768 346 4768 
C 326 4768 301 4761 301 4729 
C 301 4717 307 4710 314 4697 
C 621 4378 1402 3568 1402 1584 
C 1402 -407 627 -1217 314 -1537 
C 307 -1549 301 -1556 301 -1568 
C 301 -1600 326 -1600 346 -1600 
C 416 -1600 960 -1128 1274 -426 
C 1594 281 1683 969 1683 1581 
z
" transform="scale(0.015625)"/>
      </defs>
      <use xlink:href="#CMR17-46" transform="scale(0.996264)"/>
      <use xlink:href="#CMR17-31" transform="translate(59.983847 0) scale(0.996264)"/>
      <use xlink:href="#CMR17-2d" transform="translate(105.674324 0) scale(0.996264)"/>
      <use xlink:href="#CMR17-53" transform="translate(135.75029 0) scale(0.996264)"/>
      <use xlink:href="#CMR17-63" transform="translate(186.64566 0) scale(0.996264)"/>
      <use xlink:href="#CMR17-6f" transform="translate(227.13132 0) scale(0.996264)"/>
      <use xlink:href="#CMR17-72" transform="translate(272.821797 0) scale(0.996264)"/>
      <use xlink:href="#CMR17-65" transform="translate(308.102565 0) scale(0.996264)"/>
      <use xlink:href="#CMR17-28" transform="translate(378.664192 0) scale(0.996264)"/>
      <use xlink:href="#CMR17-50" transform="translate(413.94496 0) scale(0.996264)"/>
      <use xlink:href="#CMR17-6f" transform="translate(473.928806 0) scale(0.996264)"/>
      <use xlink:href="#CMR17-73" transform="translate(519.619284 0) scale(0.996264)"/>
      <use xlink:href="#CMR17-69" transform="translate(555.420621 0) scale(0.996264)"/>
      <use xlink:href="#CMR17-74" transform="translate(580.29168 0) scale(0.996264)"/>
      <use xlink:href="#CMR17-69" transform="translate(615.572447 0) scale(0.996264)"/>
      <use xlink:href="#CMR17-76" transform="translate(640.443506 0) scale(0.996264)"/>
      <use xlink:href="#CMR17-65" transform="translate(686.133968 0) scale(0.996264)"/>
      <use xlink:href="#CMR17-6c" transform="translate(756.695595 0) scale(0.996264)"/>
      <use xlink:href="#CMR17-61" transform="translate(781.566653 0) scale(0.996264)"/>
      <use xlink:href="#CMR17-62" transform="translate(827.25713 0) scale(0.996264)"/>
      <use xlink:href="#CMR17-65" transform="translate(880.754939 0) scale(0.996264)"/>
      <use xlink:href="#CMR17-6c" transform="translate(921.240599 0) scale(0.996264)"/>
      <use xlink:href="#CMR17-3a" transform="translate(946.111658 0) scale(0.996264)"/>
      <use xlink:href="#CMR17-31" transform="translate(1011.468377 0) scale(0.996264)"/>
      <use xlink:href="#CMR17-29" transform="translate(1057.158854 0) scale(0.996264)"/>
     </g>
    </g>
   </g>
   <g id="matplotlib.axis_2">
    <g id="ytick_1">
     <g id="line2d_7">
      <defs>
       <path id="mce086f6ef1" d="M 0 0 
L -3.5 0 
" style="stroke: #000000; stroke-width: 0.8"/>
      </defs>
      <g>
       <use xlink:href="#mce086f6ef1" x="72" y="512.64" style="stroke: #000000; stroke-width: 0.8"/>
      </g>
     </g>
     <g id="text_8">
      <!-- $\mathdefault{0.0}$ -->
      <g transform="translate(50.042358 516.79109) scale(0.12 -0.12)">
       <use xlink:href="#CMR17-30" transform="scale(0.996264)"/>
       <use xlink:href="#CMMI12-3a" transform="translate(45.690477 0) scale(0.996264)"/>
       <use xlink:href="#CMR17-30" transform="translate(72.787654 0) scale(0.996264)"/>
      </g>
     </g>
    </g>
    <g id="ytick_2">
     <g id="line2d_8">
      <g>
       <use xlink:href="#mce086f6ef1" x="72" y="423.936" style="stroke: #000000; stroke-width: 0.8"/>
      </g>
     </g>
     <g id="text_9">
      <!-- $\mathdefault{0.2}$ -->
      <g transform="translate(50.042358 428.08709) scale(0.12 -0.12)">
       <use xlink:href="#CMR17-30" transform="scale(0.996264)"/>
       <use xlink:href="#CMMI12-3a" transform="translate(45.690477 0) scale(0.996264)"/>
       <use xlink:href="#CMR17-32" transform="translate(72.787654 0) scale(0.996264)"/>
      </g>
     </g>
    </g>
    <g id="ytick_3">
     <g id="line2d_9">
      <g>
       <use xlink:href="#mce086f6ef1" x="72" y="335.232" style="stroke: #000000; stroke-width: 0.8"/>
      </g>
     </g>
     <g id="text_10">
      <!-- $\mathdefault{0.4}$ -->
      <g transform="translate(50.042358 339.38309) scale(0.12 -0.12)">
       <use xlink:href="#CMR17-30" transform="scale(0.996264)"/>
       <use xlink:href="#CMMI12-3a" transform="translate(45.690477 0) scale(0.996264)"/>
       <use xlink:href="#CMR17-34" transform="translate(72.787654 0) scale(0.996264)"/>
      </g>
     </g>
    </g>
    <g id="ytick_4">
     <g id="line2d_10">
      <g>
       <use xlink:href="#mce086f6ef1" x="72" y="246.528" style="stroke: #000000; stroke-width: 0.8"/>
      </g>
     </g>
     <g id="text_11">
      <!-- $\mathdefault{0.6}$ -->
      <g transform="translate(50.042358 250.67909) scale(0.12 -0.12)">
       <use xlink:href="#CMR17-30" transform="scale(0.996264)"/>
       <use xlink:href="#CMMI12-3a" transform="translate(45.690477 0) scale(0.996264)"/>
       <use xlink:href="#CMR17-36" transform="translate(72.787654 0) scale(0.996264)"/>
      </g>
     </g>
    </g>
    <g id="ytick_5">
     <g id="line2d_11">
      <g>
       <use xlink:href="#mce086f6ef1" x="72" y="157.824" style="stroke: #000000; stroke-width: 0.8"/>
      </g>
     </g>
     <g id="text_12">
      <!-- $\mathdefault{0.8}$ -->
      <g transform="translate(50.042358 161.97509) scale(0.12 -0.12)">
       <use xlink:href="#CMR17-30" transform="scale(0.996264)"/>
       <use xlink:href="#CMMI12-3a" transform="translate(45.690477 0) scale(0.996264)"/>
       <use xlink:href="#CMR17-38" transform="translate(72.787654 0) scale(0.996264)"/>
      </g>
     </g>
    </g>
    <g id="ytick_6">
     <g id="line2d_12">
      <g>
       <use xlink:href="#mce086f6ef1" x="72" y="69.12" style="stroke: #000000; stroke-width: 0.8"/>
      </g>
     </g>
     <g id="text_13">
      <!-- $\mathdefault{1.0}$ -->
      <g transform="translate(50.042358 73.27109) scale(0.12 -0.12)">
       <use xlink:href="#CMR17-31" transform="scale(0.996264)"/>
       <use xlink:href="#CMMI12-3a" transform="translate(45.690477 0) scale(0.996264)"/>
       <use xlink:href="#CMR17-30" transform="translate(72.787654 0) scale(0.996264)"/>
      </g>
     </g>
    </g>
    <g id="text_14">
     <!-- MCC (Positive label: 1) -->
     <g transform="translate(43.053566 352.60968) rotate(-90) scale(0.12 -0.12)">
      <defs>
       <path id="CMR17-4d" d="M 1338 4224 
C 1299 4320 1293 4320 1158 4320 
L 339 4320 
L 339 4160 
C 781 4160 851 4160 851 3875 
L 851 610 
C 851 451 851 153 339 153 
L 339 -13 
C 486 0 755 0 915 0 
C 1075 0 1344 0 1491 -13 
L 1491 153 
C 979 153 979 451 979 610 
L 979 4135 
L 986 4135 
L 2490 89 
C 2515 25 2528 -13 2579 -13 
C 2630 -13 2643 25 2669 89 
L 4186 4166 
L 4192 4166 
L 4192 438 
C 4192 153 4122 153 3680 153 
L 3680 -13 
C 3853 0 4198 0 4384 0 
C 4570 0 4922 0 5094 -13 
L 5094 153 
C 4653 153 4582 153 4582 438 
L 4582 3875 
C 4582 4160 4653 4160 5094 4160 
L 5094 4320 
L 4282 4320 
C 4147 4320 4141 4314 4102 4218 
L 2720 502 
L 1338 4224 
z
" transform="scale(0.015625)"/>
       <path id="CMR17-43" d="M 3974 4289 
C 3974 4403 3968 4410 3930 4410 
C 3904 4410 3898 4403 3853 4327 
L 3571 3792 
C 3258 4187 2874 4416 2381 4416 
C 1286 4416 294 3456 294 2148 
C 294 826 1286 -128 2387 -128 
C 3366 -128 3974 730 3974 1461 
C 3974 1524 3974 1550 3917 1550 
C 3866 1550 3866 1531 3859 1474 
C 3808 585 3168 38 2477 38 
C 1824 38 781 495 781 2147 
C 781 3805 1843 4250 2464 4250 
C 3187 4250 3712 3628 3834 2745 
C 3846 2668 3846 2655 3904 2655 
C 3974 2655 3974 2668 3974 2783 
L 3974 4289 
z
" transform="scale(0.015625)"/>
      </defs>
      <use xlink:href="#CMR17-4d" transform="scale(0.996264)"/>
      <use xlink:href="#CMR17-43" transform="translate(84.686941 0) scale(0.996264)"/>
      <use xlink:href="#CMR17-43" transform="translate(151.196821 0) scale(0.996264)"/>
      <use xlink:href="#CMR17-28" transform="translate(247.782668 0) scale(0.996264)"/>
      <use xlink:href="#CMR17-50" transform="translate(283.063436 0) scale(0.996264)"/>
      <use xlink:href="#CMR17-6f" transform="translate(343.047282 0) scale(0.996264)"/>
      <use xlink:href="#CMR17-73" transform="translate(388.73776 0) scale(0.996264)"/>
      <use xlink:href="#CMR17-69" transform="translate(424.539097 0) scale(0.996264)"/>
      <use xlink:href="#CMR17-74" transform="translate(449.410156 0) scale(0.996264)"/>
      <use xlink:href="#CMR17-69" transform="translate(484.690923 0) scale(0.996264)"/>
      <use xlink:href="#CMR17-76" transform="translate(509.561982 0) scale(0.996264)"/>
      <use xlink:href="#CMR17-65" transform="translate(555.252444 0) scale(0.996264)"/>
      <use xlink:href="#CMR17-6c" transform="translate(625.814071 0) scale(0.996264)"/>
      <use xlink:href="#CMR17-61" transform="translate(650.685129 0) scale(0.996264)"/>
      <use xlink:href="#CMR17-62" transform="translate(696.375606 0) scale(0.996264)"/>
      <use xlink:href="#CMR17-65" transform="translate(749.873415 0) scale(0.996264)"/>
      <use xlink:href="#CMR17-6c" transform="translate(790.359075 0) scale(0.996264)"/>
      <use xlink:href="#CMR17-3a" transform="translate(815.230134 0) scale(0.996264)"/>
      <use xlink:href="#CMR17-31" transform="translate(880.586853 0) scale(0.996264)"/>
      <use xlink:href="#CMR17-29" transform="translate(926.27733 0) scale(0.996264)"/>
     </g>
    </g>
   </g>
   <g id="line2d_13">
    <path d="M 72.283159 287.990194 
L 72.848938 285.87397 
L 73.696263 283.798837 
L 74.823529 281.735559 
L 76.228608 279.676255 
L 77.908856 277.617668 
L 79.861132 275.558043 
L 82.358608 273.25514 
L 85.392 270.789076 
L 88.95014 268.209355 
L 93.020074 265.546745 
L 97.854344 262.668131 
L 103.426997 259.626414 
L 109.70866 256.457567 
L 116.922447 253.069734 
L 125.26969 249.398673 
L 127.019232 248.656531 
L 127.002857 248.931702 
L 136.859294 244.868275 
L 148.385151 240.364553 
L 162.120103 235.246621 
L 178.926633 229.233925 
L 201.099946 221.554002 
L 204.19519 220.495769 
L 204.159481 220.665782 
L 232.448583 211.031908 
L 232.406864 211.183456 
L 280.066877 194.823669 
L 291.145698 190.977197 
L 291.093333 191.101694 
L 317.186866 181.577695 
L 339.24612 173.117618 
L 343.046134 171.682141 
L 342.986432 171.78958 
L 343.123365 171.73447 
L 347.473606 169.973526 
L 347.41338 170.079637 
L 347.35318 170.18567 
L 347.488112 170.130643 
L 351.714298 168.47682 
L 351.653623 168.581497 
L 351.786597 168.526538 
L 356.99742 166.434466 
L 356.93617 166.53756 
L 357.066781 166.482684 
L 363.080902 164.008452 
L 363.085058 164.156247 
L 367.213674 162.448415 
L 367.151392 162.548468 
L 367.277452 162.493658 
L 371.469347 160.730286 
L 371.406657 160.829122 
L 371.53085 160.774321 
L 374.310037 159.61242 
L 374.247096 159.710406 
L 374.370025 159.655584 
L 382.188419 156.190729 
L 382.124738 156.286674 
L 382.061084 156.382562 
L 382.180669 156.327723 
L 384.023558 155.545735 
L 383.959763 155.641032 
L 384.078496 155.586146 
L 389.708922 153.084732 
L 389.64466 153.1785 
L 389.760971 153.123539 
L 390.741312 152.722338 
L 390.676998 152.815733 
L 390.792818 152.760718 
L 395.258252 150.74425 
L 395.1936 150.836421 
L 395.307499 150.781308 
L 400.591408 148.316484 
L 400.526366 148.407272 
L 400.638037 148.352033 
L 406.581605 145.490275 
L 406.516142 145.579561 
L 406.73452 145.468755 
L 408.885981 144.482149 
L 408.820401 144.570755 
L 409.036778 144.459713 
L 409.013769 144.581125 
L 410.415364 143.858498 
L 410.349728 143.946598 
L 410.564715 143.835344 
L 412.253892 143.064491 
L 412.122495 143.239513 
L 412.335843 143.127983 
L 413.905136 142.409412 
L 413.879585 142.527378 
L 413.98547 142.471475 
L 416.906687 141.021388 
L 416.774943 141.193544 
L 416.984192 141.081387 
L 418.208567 140.523406 
L 418.142672 140.609013 
L 418.218943 140.667641 
L 419.501062 140.021461 
L 419.43516 140.106584 
L 419.369283 140.191669 
L 419.576042 140.078977 
L 419.444335 140.248941 
L 420.446796 139.797769 
L 420.380952 139.882381 
L 420.520793 139.85392 
L 425.313035 137.330439 
L 425.246971 137.413797 
L 425.448673 137.300224 
L 429.450973 135.158562 
L 429.384729 135.240879 
L 429.583105 135.126775 
L 430.440222 134.720035 
L 430.307761 134.883939 
L 430.505209 134.769568 
L 432.045058 133.959679 
L 430.690909 135.685945 
L 430.788785 135.628202 
L 431.95791 135.060381 
L 431.826443 135.220934 
L 432.02103 135.10511 
L 433.858233 134.127072 
L 433.792477 134.206766 
L 433.985395 134.090567 
L 434.558376 133.863895 
L 434.492659 133.943273 
L 434.78087 133.76859 
L 436.401588 132.897896 
L 436.335847 132.976739 
L 436.555976 132.880244 
L 439.294177 131.300231 
L 439.228377 131.378296 
L 439.510689 131.202203 
L 440.25209 130.848157 
L 440.186319 130.925866 
L 440.373648 130.808181 
L 440.33576 130.904548 
L 441.883357 129.998003 
L 441.8176 130.075185 
L 441.686156 130.229461 
L 441.87202 130.111272 
L 441.833523 130.20622 
L 443.210191 129.429862 
L 443.144525 129.506455 
L 443.421216 129.32847 
L 444.734556 128.513927 
L 444.694837 128.606846 
L 444.629175 128.682991 
L 444.83831 128.580491 
L 446.036211 127.929721 
L 445.905016 128.080983 
L 446.112303 127.97721 
L 446.526006 127.769087 
L 446.394962 127.91976 
L 446.264008 128.070323 
L 446.53592 127.890467 
L 447.629268 127.289814 
L 447.563839 127.364638 
L 447.833983 127.184148 
L 448.984103 126.504123 
L 448.918688 126.578534 
L 448.853296 126.652917 
L 449.14571 126.485681 
L 451.351474 125.073161 
L 451.286069 125.146891 
L 451.220686 125.220595 
L 451.574574 124.977734 
L 451.843027 124.907099 
L 451.777717 124.980507 
L 452.130309 124.737002 
L 452.74844 124.420132 
L 452.683188 124.49318 
L 452.968767 124.321855 
L 452.903544 124.394786 
L 453.692197 123.951454 
L 453.62704 124.024062 
L 453.561905 124.096645 
L 453.78046 123.996279 
L 453.781471 124.101527 
L 453.9774 123.989323 
L 453.912404 124.061545 
L 454.1949 123.887496 
L 454.671872 123.600206 
L 454.650204 123.692517 
L 454.585315 123.764358 
L 454.866283 123.589035 
L 454.822964 123.670629 
L 455.146162 123.514047 
L 455.03757 123.76573 
L 455.188915 123.533048 
L 455.123591 123.703636 
L 455.101669 123.793005 
L 455.659047 123.43743 
L 455.59448 123.508403 
L 455.872474 123.33009 
L 455.7 123.551003 
L 455.848565 123.513314 
L 455.719779 123.654537 
L 455.591078 123.795668 
L 455.889045 123.623675 
L 456.292174 123.395871 
L 456.184492 123.543699 
L 456.120301 123.613845 
L 456.331698 123.502623 
L 456.224187 123.649673 
L 456.668577 123.341729 
L 456.517624 123.564408 
L 456.389686 123.703739 
L 456.684347 123.527033 
L 456.556545 123.666034 
L 456.513233 123.741667 
L 457.520556 123.067905 
L 456.880937 123.842068 
L 457.068778 123.719523 
L 457.1727 123.660595 
L 456.982304 123.866416 
L 457.189926 123.747887 
L 457.083336 123.889233 
L 457.310596 123.77405 
L 457.74703 123.457547 
L 457.700131 123.608985 
L 457.636953 123.676936 
L 457.882322 123.562185 
L 458.233361 123.307628 
L 458.185875 123.454908 
L 458.059938 123.589855 
L 458.555204 123.201762 
L 458.817103 123.084553 
L 458.773611 123.153934 
L 458.66736 123.290206 
L 459.034447 123.034109 
L 458.783533 123.30156 
L 458.735534 123.441266 
L 459.019492 123.248018 
L 458.956949 123.314545 
L 459.240291 123.120539 
L 459.216 123.1887 
L 459.335633 123.124676 
L 459.042885 123.456097 
L 458.980589 123.522195 
L 459.487542 123.128195 
L 459.425265 123.194153 
L 459.257556 123.391951 
L 459.999872 122.863053 
L 459.937752 122.928618 
L 460.273143 122.726527 
L 460.613823 122.460388 
L 460.297594 122.847528 
L 460.235744 122.912568 
L 460.532018 122.708061 
L 460.463733 122.832147 
L 461.4443 122.138868 
L 461.382738 122.203147 
L 461.031891 122.585378 
L 461.544515 122.174985 
L 461.501056 122.235505 
L 462.188741 121.782737 
L 462.127563 121.846198 
L 461.684388 122.387546 
L 462.180451 121.832774 
L 461.955417 122.172756 
L 462.374089 121.866685 
L 461.929808 122.225143 
L 462.296598 122.019215 
L 461.944341 122.507467 
L 462.314024 122.013059 
L 462.056913 122.424093 
L 462.161172 122.379907 
L 461.827622 122.772718 
L 461.449045 123.307591 
L 461.845018 122.764648 
L 461.52594 123.237366 
L 461.674387 123.181791 
L 461.311786 123.574203 
L 461.481967 123.42207 
L 461.730368 123.242474 
L 460.133193 124.954778 
L 460.226243 124.869586 
L 458.849087 126.332658 
L 434.72235 150.671396 
L 434.744688 150.636683 
L 434.815428 150.550992 
L 433.753293 151.669764 
L 430.173797 155.292124 
L 430.243902 155.203833 
L 429.563598 155.888613 
L 427.823571 157.590739 
L 427.963523 157.378076 
L 427.388649 157.97938 
L 427.435689 157.89658 
L 424.622325 160.79917 
L 424.760424 160.613811 
L 424.247284 161.116633 
L 413.01064 173.184102 
L 413.078269 173.082852 
L 412.535683 173.705678 
L 401.920303 186.078984 
L 397.182439 191.774653 
L 397.248357 191.657683 
L 396.795732 192.240032 
L 391.089567 199.77861 
L 386.363375 206.433749 
L 382.083719 212.842096 
L 376.844338 221.15465 
L 371.438407 230.56697 
L 368.283186 236.904155 
L 365.501596 243.108097 
L 363.373672 248.479161 
L 361.249214 254.481457 
L 359.682028 259.69006 
L 358.364669 264.835853 
L 357.290511 269.925302 
L 356.45422 274.959721 
L 355.851684 279.924756 
L 355.479964 284.729594 
L 355.337253 288.370033 
L 355.308728 290.88 
L 355.308728 290.88 
" clip-path="url(#p3ecb5c6a8d)" style="fill: none; stroke: #1f77b4; stroke-width: 1.5; stroke-linecap: square"/>
   </g>
   <g id="line2d_14">
    <path d="M 72.283159 287.990194 
L 72.848938 285.87397 
L 73.696263 283.798837 
L 74.823529 281.735559 
L 76.228608 279.676255 
L 77.908856 277.617668 
L 79.861132 275.558043 
L 82.358608 273.25514 
L 85.392 270.789076 
L 88.95014 268.209355 
L 93.020074 265.546745 
L 97.854344 262.668131 
L 103.426997 259.626414 
L 108.146849 257.223891 
L 108.135849 257.566173 
L 115.117416 254.202675 
L 122.994258 250.656749 
L 132.206566 246.757901 
L 142.902657 242.478549 
L 155.427257 237.712305 
L 170.500226 232.220944 
L 189.53192 225.534652 
L 205.631068 220.005614 
L 205.595039 220.174575 
L 251.735629 204.447759 
L 251.690127 204.589298 
L 252.411533 204.341316 
L 252.365917 204.482313 
L 263.314286 200.815354 
L 263.266683 200.950971 
L 286.014152 193.03368 
L 285.962656 193.159772 
L 294.457767 190.197048 
L 294.404939 190.31976 
L 308.378243 185.269445 
L 308.323309 185.387146 
L 311.456185 184.30864 
L 311.400832 184.425092 
L 334.225156 175.70951 
L 346.7827 170.825093 
L 346.722691 170.930729 
L 346.857642 170.875472 
L 349.88497 169.710532 
L 349.824625 169.815148 
L 349.958142 169.75993 
L 351.893379 169.036141 
L 351.832836 169.140043 
L 351.965398 169.084823 
L 363.541985 164.331568 
L 363.480178 164.432215 
L 363.60763 164.377211 
L 367.218197 162.88286 
L 367.156033 162.982429 
L 367.281853 162.927438 
L 371.837594 160.992672 
L 371.774984 161.090951 
L 371.898789 161.03598 
L 378.381841 158.263017 
L 378.31863 158.3595 
L 378.439604 158.304522 
L 383.229605 156.241651 
L 383.165985 156.336779 
L 383.284856 156.281753 
L 387.404097 154.48917 
L 387.393271 154.621907 
L 388.962942 153.943678 
L 388.898909 154.037074 
L 389.015229 153.981902 
L 393.157515 152.125071 
L 393.143361 152.254241 
L 396.088889 150.9442 
L 396.024368 151.035543 
L 396.13758 150.980167 
L 397.476007 150.442047 
L 397.411429 150.532896 
L 397.523983 150.477434 
L 398.918457 149.846802 
L 398.853797 149.937211 
L 398.789164 150.027572 
L 398.901068 149.972024 
L 404.090838 147.48251 
L 404.025837 147.571557 
L 404.135577 147.515874 
L 408.791311 145.239919 
L 408.726003 145.327787 
L 408.941578 145.216113 
L 409.09167 145.192164 
L 409.02638 145.279854 
L 408.961115 145.367501 
L 409.176307 145.255673 
L 413.591553 142.991794 
L 413.525988 143.078368 
L 413.460449 143.164899 
L 413.671974 143.052729 
L 414.279893 142.832591 
L 414.21436 142.9188 
L 414.42511 142.80645 
L 416.078719 142.022494 
L 416.013117 142.108166 
L 416.222298 141.995579 
L 418.381332 140.926529 
L 418.31563 141.011565 
L 418.522867 140.898704 
L 419.762997 140.221273 
L 418.452167 141.907901 
L 418.658026 141.794115 
L 420.679347 140.765458 
L 420.613953 140.848841 
L 420.817998 140.734782 
L 421.36379 140.475706 
L 421.29839 140.558852 
L 421.167665 140.725033 
L 421.371044 140.610757 
L 422.052278 140.319147 
L 421.986933 140.401909 
L 422.189513 140.287443 
L 422.124179 140.370128 
L 425.44824 138.609642 
L 425.382775 138.691492 
L 425.582522 138.57655 
L 426.249048 138.279824 
L 426.183592 138.361373 
L 426.317119 138.327708 
L 426.946856 138.00576 
L 426.881416 138.08703 
L 426.816 138.168266 
L 426.948858 138.134061 
L 428.234741 137.510393 
L 428.169341 137.591132 
L 428.366306 137.475428 
L 429.642583 136.848134 
L 429.577176 136.928417 
L 429.77287 136.812411 
L 429.707476 136.892622 
L 431.654148 135.854128 
L 431.588721 135.933796 
L 431.782651 135.81738 
L 432.684719 135.314423 
L 432.65039 135.414833 
L 432.584984 135.494131 
L 432.777955 135.377441 
L 433.448336 135.089185 
L 433.382963 135.168153 
L 433.67115 134.992725 
L 434.05046 134.877956 
L 433.819794 135.212372 
L 433.945946 135.1735 
L 435.846027 134.115028 
L 435.780775 134.192977 
L 436.065245 134.016313 
L 436 134.094178 
L 438.0687 132.910787 
L 438.003424 132.988105 
L 438.285083 132.810725 
L 438.219815 132.88796 
L 439.492912 132.153868 
L 439.427638 132.230751 
L 439.362387 132.307605 
L 439.642173 132.129647 
L 440.283953 131.82521 
L 440.218736 131.901738 
L 440.497274 131.723355 
L 440.432065 131.799803 
L 440.422065 131.909881 
L 441.162712 131.433274 
L 441.097546 131.509433 
L 441.374735 131.330552 
L 441.244444 131.482683 
L 441.483298 131.395829 
L 441.418214 131.471727 
L 441.353153 131.547596 
L 441.49949 131.519827 
L 442.708469 130.863613 
L 442.643478 130.938964 
L 442.91796 130.758921 
L 442.852978 130.834193 
L 442.867402 130.954654 
L 443.232453 130.714088 
L 443.167552 130.789106 
L 443.376101 130.683502 
L 446.015 129.050742 
L 445.91034 129.212926 
L 446.090323 129.091812 
L 446.908059 128.660146 
L 446.713639 128.881581 
L 446.98217 128.699253 
L 446.942083 128.785825 
L 447.486699 128.531911 
L 447.406265 128.703265 
L 447.584308 128.581173 
L 448.214212 128.262366 
L 448.149648 128.335328 
L 448.439506 128.163302 
L 448.310456 128.308971 
L 450.320573 126.991473 
L 450.279284 127.074521 
L 450.214797 127.146776 
L 450.436512 127.044675 
L 451.773134 126.230697 
L 451.708733 126.30239 
L 451.992138 126.126331 
L 451.927766 126.197913 
L 451.908463 126.288475 
L 452.300203 126.058849 
L 452.23593 126.130162 
L 452.582199 125.881589 
L 452.453689 126.024018 
L 452.79946 125.775184 
L 452.47849 126.130533 
L 452.286167 126.343465 
L 452.461373 126.314872 
L 452.419573 126.393878 
L 453.430986 125.729446 
L 453.367041 125.799859 
L 453.667515 125.626946 
L 454.734946 124.978487 
L 454.883572 124.935763 
L 454.6498 125.221083 
L 455.855148 124.428988 
L 455.791512 124.498219 
L 455.727897 124.567427 
L 455.958682 124.457349 
L 456.524963 124.091775 
L 456.418425 124.234523 
L 456.332509 124.381867 
L 456.604351 124.195152 
L 456.540979 124.263722 
L 457.683741 123.525682 
L 457.341361 124.019823 
L 457.786815 123.465405 
L 457.424374 123.955416 
L 457.50736 123.890998 
L 457.129412 124.297285 
L 457.149428 124.300396 
L 457.063708 124.441495 
L 457.394912 124.182938 
L 457.332072 124.250377 
L 457.266243 124.392982 
L 457.636168 124.138463 
L 457.316732 124.619266 
L 457.398995 124.554131 
L 458.173146 124.040332 
L 457.43534 124.628307 
L 458.130233 124.107835 
L 457.644788 124.774376 
L 457.537048 124.972458 
L 457.820212 124.774298 
L 457.758332 124.839994 
L 458.160653 124.573825 
L 458.098848 124.639313 
L 458.010158 124.83106 
L 458.352896 124.564449 
L 458.060309 124.94899 
L 458.321349 124.747392 
L 458.738286 124.470453 
L 458.511893 124.726532 
L 458.389347 124.855578 
L 458.828178 124.515435 
L 458.743508 124.638519 
L 459.082193 124.366855 
L 458.631257 124.873087 
L 459.109753 124.468556 
L 458.987809 124.596318 
L 459.362038 124.314816 
L 459.295995 124.430046 
L 459.79734 124.113643 
L 459.272316 124.485164 
L 459.615389 124.303229 
L 459.446769 124.535144 
L 459.816958 124.245588 
L 459.575327 124.496801 
L 459.65401 124.428343 
L 459.281975 124.893161 
L 458.976848 125.247903 
L 459.45974 124.86851 
L 459.339969 124.992575 
L 459.454517 124.90898 
L 459.008315 125.42743 
L 458.902875 125.580218 
L 459.28642 125.268022 
L 459.162734 125.425942 
L 459.539312 125.143515 
L 459.184369 125.508779 
L 459.310647 125.441083 
L 457.995595 126.932096 
L 458.090229 126.848894 
L 458.261121 126.694024 
L 457.493845 127.553467 
L 457.512083 127.540378 
L 453.402912 131.902369 
L 457.624417 127.441778 
L 453.477362 131.82731 
L 453.664865 131.640655 
L 421.819807 163.915515 
L 406.948136 180.444955 
L 401.86733 186.395337 
L 401.855864 186.382389 
L 401.922539 186.272461 
L 401.615132 186.570301 
L 392.332387 198.261254 
L 385.94615 207.079093 
L 380.607662 215.070201 
L 376.150233 222.343948 
L 371.631833 230.362951 
L 368.500802 236.629899 
L 364.981962 244.365853 
L 362.623319 250.444483 
L 360.863231 255.69506 
L 359.358889 260.87248 
L 358.102643 265.982802 
L 357.088198 271.02699 
L 356.310527 275.993463 
L 355.765816 280.829008 
L 355.422862 285.858955 
L 355.308728 290.88 
L 355.308728 290.88 
" clip-path="url(#p3ecb5c6a8d)" style="fill: none; stroke: #ff7f0e; stroke-width: 1.5; stroke-linecap: square"/>
   </g>
   <g id="patch_3">
    <path d="M 72 512.64 
L 72 69.12 
" style="fill: none; stroke: #000000; stroke-width: 0.8; stroke-linejoin: miter; stroke-linecap: square"/>
   </g>
   <g id="patch_4">
    <path d="M 518.4 512.64 
L 518.4 69.12 
" style="fill: none; stroke: #000000; stroke-width: 0.8; stroke-linejoin: miter; stroke-linecap: square"/>
   </g>
   <g id="patch_5">
    <path d="M 72 512.64 
L 518.4 512.64 
" style="fill: none; stroke: #000000; stroke-width: 0.8; stroke-linejoin: miter; stroke-linecap: square"/>
   </g>
   <g id="patch_6">
    <path d="M 72 69.12 
L 518.4 69.12 
" style="fill: none; stroke: #000000; stroke-width: 0.8; stroke-linejoin: miter; stroke-linecap: square"/>
   </g>
   <g id="text_15">
    <!-- MCC-F1 Curve -->
    <g transform="translate(247.501945 63.12) scale(0.144 -0.144)">
     <defs>
      <path id="CMR17-75" d="M 1882 2693 
L 1882 2528 
C 2259 2528 2317 2489 2317 2186 
L 2317 1032 
C 2317 500 2029 38 1555 38 
C 1030 38 986 348 986 678 
L 986 2763 
L 211 2693 
L 211 2528 
C 467 2528 640 2528 646 2274 
L 646 1058 
C 646 633 646 361 813 183 
C 896 101 1056 -64 1517 -64 
C 2061 -64 2272 377 2323 506 
L 2330 506 
L 2330 -63 
L 3091 -63 
L 3091 128 
C 2714 128 2656 166 2656 473 
L 2656 2763 
L 1882 2693 
z
" transform="scale(0.015625)"/>
     </defs>
     <use xlink:href="#CMR17-4d" transform="scale(0.996264)"/>
     <use xlink:href="#CMR17-43" transform="translate(84.686941 0) scale(0.996264)"/>
     <use xlink:href="#CMR17-43" transform="translate(151.196821 0) scale(0.996264)"/>
     <use xlink:href="#CMR17-2d" transform="translate(217.706702 0) scale(0.996264)"/>
     <use xlink:href="#CMR17-46" transform="translate(247.782668 0) scale(0.996264)"/>
     <use xlink:href="#CMR17-31" transform="translate(307.766515 0) scale(0.996264)"/>
     <use xlink:href="#CMR17-43" transform="translate(383.532958 0) scale(0.996264)"/>
     <use xlink:href="#CMR17-75" transform="translate(450.042839 0) scale(0.996264)"/>
     <use xlink:href="#CMR17-72" transform="translate(500.938208 0) scale(0.996264)"/>
     <use xlink:href="#CMR17-76" transform="translate(536.218976 0) scale(0.996264)"/>
     <use xlink:href="#CMR17-65" transform="translate(581.909438 0) scale(0.996264)"/>
    </g>
   </g>
   <g id="legend_1">
    <g id="patch_7">
     <path d="M 206.081747 506.64 
L 510 506.64 
Q 512.4 506.64 512.4 504.24 
L 512.4 469.529664 
Q 512.4 467.129664 510 467.129664 
L 206.081747 467.129664 
Q 203.681747 467.129664 203.681747 469.529664 
L 203.681747 504.24 
Q 203.681747 506.64 206.081747 506.64 
z
" style="fill: #ffffff; opacity: 0.8; stroke: #cccccc; stroke-linejoin: miter"/>
    </g>
    <g id="line2d_15">
     <path d="M 208.481747 476.69604 
L 220.481747 476.69604 
L 232.481747 476.69604 
" style="fill: none; stroke: #1f77b4; stroke-width: 1.5; stroke-linecap: square"/>
    </g>
    <g id="text_16">
     <!-- LinearSVC (Best $\tau$ = -0.060, normMCC = 0.881) -->
     <g transform="translate(242.081747 480.89604) scale(0.12 -0.12)">
      <defs>
       <path id="CMR17-4c" d="M 3469 1615 
L 3354 1615 
C 3302 983 3219 166 2125 166 
L 1530 166 
C 1274 166 1261 197 1261 414 
L 1261 3898 
C 1261 4129 1274 4192 1760 4192 
L 1901 4192 
L 1901 4352 
C 1638 4352 1331 4352 1069 4352 
C 870 4352 512 4352 326 4352 
L 326 4192 
C 768 4192 838 4192 838 3905 
L 838 452 
C 838 166 768 166 326 166 
L 326 0 
L 3315 0 
L 3469 1615 
z
" transform="scale(0.015625)"/>
       <path id="CMR17-6e" d="M 2656 1933 
C 2656 2259 2592 2790 1837 2790 
C 1331 2790 1069 2400 973 2144 
L 966 2144 
L 966 2790 
L 211 2720 
L 211 2554 
C 589 2554 646 2515 646 2208 
L 646 428 
C 646 184 621 153 211 153 
L 211 -13 
C 365 0 646 0 813 0 
C 979 0 1267 0 1421 -13 
L 1421 153 
C 1011 153 986 178 986 428 
L 986 1658 
C 986 2247 1344 2688 1792 2688 
C 2266 2688 2317 2266 2317 1958 
L 2317 428 
C 2317 184 2291 153 1882 153 
L 1882 -13 
C 2035 0 2317 0 2483 0 
C 2650 0 2938 0 3091 -13 
L 3091 153 
C 2682 153 2656 178 2656 428 
L 2656 1933 
z
" transform="scale(0.015625)"/>
       <path id="CMR17-56" d="M 3776 3745 
C 3834 3886 3936 4160 4365 4160 
L 4365 4332 
C 4218 4319 4051 4319 3891 4319 
C 3738 4319 3475 4319 3328 4332 
L 3328 4160 
C 3648 4160 3661 3936 3661 3898 
C 3661 3827 3642 3783 3622 3732 
L 2362 446 
L 1043 3886 
C 1024 3931 1011 3963 1011 3994 
C 1011 4160 1267 4160 1402 4160 
L 1402 4319 
C 1197 4319 896 4319 685 4319 
C 518 4319 218 4319 64 4332 
L 64 4160 
C 435 4160 506 4135 582 3931 
L 2106 -26 
C 2138 -115 2144 -128 2214 -128 
C 2285 -128 2291 -115 2323 -26 
L 3776 3745 
z
" transform="scale(0.015625)"/>
       <path id="CMR17-42" d="M 333 4352 
L 333 4186 
C 774 4186 845 4186 845 3900 
L 845 452 
C 845 166 774 166 333 166 
L 333 0 
L 2534 0 
C 3354 0 3885 583 3885 1164 
C 3885 1741 3360 2233 2675 2233 
C 3290 2356 3718 2771 3718 3264 
C 3718 3802 3194 4352 2368 4352 
L 333 4352 
z
M 1248 2304 
L 1248 3937 
C 1248 4155 1261 4186 1517 4186 
L 2336 4186 
C 2970 4186 3251 3674 3251 3277 
C 3251 2791 2861 2304 2170 2304 
L 1248 2304 
z
M 1517 166 
C 1261 166 1248 197 1248 413 
L 1248 2202 
L 2432 2202 
C 3091 2202 3411 1625 3411 1162 
C 3411 699 3046 166 2349 166 
L 1517 166 
z
" transform="scale(0.015625)"/>
       <path id="CMMI12-1c" d="M 1837 2408 
L 2899 2408 
C 2982 2408 3194 2408 3194 2612 
C 3194 2752 3072 2752 2957 2752 
L 1197 2752 
C 1050 2752 832 2752 538 2440 
C 371 2255 166 1917 166 1879 
C 166 1841 198 1828 237 1828 
C 282 1828 288 1847 320 1885 
C 653 2408 986 2408 1146 2408 
L 1677 2408 
L 1011 223 
C 979 127 979 114 979 95 
C 979 25 1024 -64 1152 -64 
C 1350 -64 1382 108 1402 203 
L 1837 2408 
z
" transform="scale(0.015625)"/>
       <path id="CMR17-3d" d="M 4115 2017 
C 4211 2017 4307 2017 4307 2125 
C 4307 2240 4198 2240 4090 2240 
L 512 2240 
C 403 2240 294 2240 294 2125 
C 294 2017 390 2017 486 2017 
L 4115 2017 
z
M 4090 896 
C 4198 896 4307 896 4307 1011 
C 4307 1119 4211 1119 4115 1119 
L 486 1119 
C 390 1119 294 1119 294 1011 
C 294 896 403 896 512 896 
L 4090 896 
z
" transform="scale(0.015625)"/>
       <path id="CMR17-2e" d="M 1062 261 
C 1062 420 934 522 800 522 
C 672 522 538 420 538 261 
C 538 102 666 0 800 0 
C 928 0 1062 102 1062 261 
z
" transform="scale(0.015625)"/>
       <path id="CMR17-2c" d="M 1011 102 
C 1024 45 1024 25 1024 -77 
C 1024 -463 896 -817 627 -1139 
C 595 -1170 595 -1183 595 -1197 
C 595 -1222 621 -1248 646 -1248 
C 685 -1248 1126 -799 1126 -87 
C 1126 124 1101 522 800 522 
C 659 522 538 427 538 261 
C 538 96 659 0 800 0 
C 877 0 960 32 1011 102 
z
" transform="scale(0.015625)"/>
       <path id="CMR17-6d" d="M 4326 1933 
C 4326 2252 4269 2790 3507 2790 
C 3072 2790 2771 2496 2656 2151 
L 2650 2151 
C 2573 2676 2195 2790 1837 2790 
C 1331 2790 1069 2400 973 2144 
L 966 2144 
L 966 2790 
L 211 2720 
L 211 2554 
C 589 2554 646 2515 646 2208 
L 646 428 
C 646 184 621 153 211 153 
L 211 -13 
C 365 0 646 0 813 0 
C 979 0 1267 0 1421 -13 
L 1421 153 
C 1011 153 986 178 986 428 
L 986 1658 
C 986 2247 1344 2688 1792 2688 
C 2266 2688 2317 2266 2317 1958 
L 2317 428 
C 2317 184 2291 153 1882 153 
L 1882 -13 
C 2035 0 2317 0 2483 0 
C 2650 0 2938 0 3091 -13 
L 3091 153 
C 2682 153 2656 178 2656 428 
L 2656 1658 
C 2656 2247 3014 2688 3462 2688 
C 3936 2688 3987 2266 3987 1958 
L 3987 428 
C 3987 184 3962 153 3552 153 
L 3552 -13 
C 3706 0 3987 0 4154 0 
C 4320 0 4608 0 4762 -13 
L 4762 153 
C 4352 153 4326 178 4326 428 
L 4326 1933 
z
" transform="scale(0.015625)"/>
      </defs>
      <use xlink:href="#CMR17-4c" transform="scale(0.996264)"/>
      <use xlink:href="#CMR17-69" transform="translate(57.381408 0) scale(0.996264)"/>
      <use xlink:href="#CMR17-6e" transform="translate(82.252466 0) scale(0.996264)"/>
      <use xlink:href="#CMR17-65" transform="translate(133.147836 0) scale(0.996264)"/>
      <use xlink:href="#CMR17-61" transform="translate(173.633497 0) scale(0.996264)"/>
      <use xlink:href="#CMR17-72" transform="translate(219.323974 0) scale(0.996264)"/>
      <use xlink:href="#CMR17-53" transform="translate(254.604741 0) scale(0.996264)"/>
      <use xlink:href="#CMR17-56" transform="translate(305.500111 0) scale(0.996264)"/>
      <use xlink:href="#CMR17-43" transform="translate(371.970087 0) scale(0.996264)"/>
      <use xlink:href="#CMR17-28" transform="translate(468.555934 0) scale(0.996264)"/>
      <use xlink:href="#CMR17-42" transform="translate(503.836702 0) scale(0.996264)"/>
      <use xlink:href="#CMR17-65" transform="translate(569.025456 0) scale(0.996264)"/>
      <use xlink:href="#CMR17-73" transform="translate(609.511117 0) scale(0.996264)"/>
      <use xlink:href="#CMR17-74" transform="translate(645.312454 0) scale(0.996264)"/>
      <use xlink:href="#CMMI12-1c" transform="translate(710.669189 0) scale(0.996264)"/>
      <use xlink:href="#CMR17-3d" transform="translate(794.23632 0) scale(0.996264)"/>
      <use xlink:href="#CMR17-2d" transform="translate(896.027075 0) scale(0.996264)"/>
      <use xlink:href="#CMR17-30" transform="translate(926.103041 0) scale(0.996264)"/>
      <use xlink:href="#CMR17-2e" transform="translate(971.793518 0) scale(0.996264)"/>
      <use xlink:href="#CMR17-30" transform="translate(996.664577 0) scale(0.996264)"/>
      <use xlink:href="#CMR17-36" transform="translate(1042.355054 0) scale(0.996264)"/>
      <use xlink:href="#CMR17-30" transform="translate(1088.045531 0) scale(0.996264)"/>
      <use xlink:href="#CMR17-2c" transform="translate(1133.736008 0) scale(0.996264)"/>
      <use xlink:href="#CMR17-6e" transform="translate(1188.683033 0) scale(0.996264)"/>
      <use xlink:href="#CMR17-6f" transform="translate(1239.578403 0) scale(0.996264)"/>
      <use xlink:href="#CMR17-72" transform="translate(1285.26888 0) scale(0.996264)"/>
      <use xlink:href="#CMR17-6d" transform="translate(1320.549648 0) scale(0.996264)"/>
      <use xlink:href="#CMR17-4d" transform="translate(1397.469238 0) scale(0.996264)"/>
      <use xlink:href="#CMR17-43" transform="translate(1482.156178 0) scale(0.996264)"/>
      <use xlink:href="#CMR17-43" transform="translate(1548.666059 0) scale(0.996264)"/>
      <use xlink:href="#CMR17-3d" transform="translate(1645.251906 0) scale(0.996264)"/>
      <use xlink:href="#CMR17-30" transform="translate(1747.04266 0) scale(0.996264)"/>
      <use xlink:href="#CMR17-2e" transform="translate(1792.733138 0) scale(0.996264)"/>
      <use xlink:href="#CMR17-38" transform="translate(1817.604196 0) scale(0.996264)"/>
      <use xlink:href="#CMR17-38" transform="translate(1863.294673 0) scale(0.996264)"/>
      <use xlink:href="#CMR17-31" transform="translate(1908.98515 0) scale(0.996264)"/>
      <use xlink:href="#CMR17-29" transform="translate(1954.675627 0) scale(0.996264)"/>
     </g>
    </g>
    <g id="line2d_16">
     <path d="M 208.481747 494.651208 
L 220.481747 494.651208 
L 232.481747 494.651208 
" style="fill: none; stroke: #ff7f0e; stroke-width: 1.5; stroke-linecap: square"/>
    </g>
    <g id="text_17">
     <!-- SGDClassifier (Best $\tau$ = 0.364, normMCC = 0.877) -->
     <g transform="translate(242.081747 498.851208) scale(0.12 -0.12)">
      <defs>
       <path id="CMR17-47" d="M 3974 1233 
C 3974 1473 3994 1505 4390 1505 
L 4390 1670 
C 4237 1664 3891 1664 3718 1664 
C 3539 1664 3040 1664 2797 1664 
L 2797 1505 
L 2989 1505 
C 3539 1505 3552 1434 3552 1201 
L 3552 774 
C 3552 63 2720 63 2522 63 
C 1862 63 781 511 781 2160 
C 781 3808 1843 4250 2464 4250 
C 3187 4250 3712 3626 3834 2741 
C 3846 2664 3846 2651 3904 2651 
C 3974 2651 3974 2664 3974 2779 
L 3974 4288 
C 3974 4402 3968 4409 3930 4409 
C 3904 4409 3898 4402 3853 4326 
L 3571 3791 
C 3258 4187 2874 4416 2381 4416 
C 1286 4416 294 3456 294 2148 
C 294 845 1267 -128 2394 -128 
C 2912 -128 3418 56 3616 417 
C 3725 158 3904 -20 3936 -20 
C 3968 -20 3974 -13 3974 100 
L 3974 1233 
z
" transform="scale(0.015625)"/>
       <path id="CMR17-44" d="M 333 4352 
L 333 4186 
C 774 4186 845 4186 845 3900 
L 845 452 
C 845 166 774 166 333 166 
L 333 0 
L 2368 0 
C 3398 0 4224 943 4224 2141 
C 4224 3346 3411 4352 2368 4352 
L 333 4352 
z
M 1523 166 
C 1267 166 1254 197 1254 414 
L 1254 3938 
C 1254 4155 1267 4186 1523 4186 
L 2240 4186 
C 2771 4186 3750 3874 3750 2141 
C 3750 1242 3488 879 3366 707 
C 3213 510 2848 166 2240 166 
L 1523 166 
z
" transform="scale(0.015625)"/>
       <path id="CMR17-c" d="M 2554 2764 
C 2400 2764 1926 2764 1805 2739 
C 1766 2725 1754 2725 1677 2725 
L 947 2725 
L 947 3469 
C 947 4073 1434 4352 1818 4352 
C 1939 4352 2214 4320 2355 4101 
C 2291 4101 2086 4101 2086 3878 
C 2086 3725 2189 3648 2317 3648 
C 2432 3648 2547 3712 2547 3885 
C 2547 4205 2240 4454 1843 4454 
C 1338 4454 634 4168 634 3469 
L 634 2725 
L 122 2725 
L 122 2560 
L 634 2560 
L 634 427 
C 634 184 608 153 198 153 
L 198 -13 
C 352 0 634 0 794 0 
C 960 0 1242 0 1395 -13 
L 1395 153 
C 986 153 960 178 960 427 
L 960 2560 
L 1901 2560 
C 2176 2560 2227 2502 2227 2222 
L 2227 427 
C 2227 184 2202 153 1792 153 
L 1792 -13 
C 1946 0 2227 0 2387 0 
C 2554 0 2835 0 2989 -13 
L 2989 153 
C 2579 153 2554 178 2554 427 
L 2554 2764 
z
" transform="scale(0.015625)"/>
       <path id="CMR17-33" d="M 1414 2157 
C 1984 2157 2234 1662 2234 1090 
C 2234 320 1824 25 1453 25 
C 1114 25 563 194 390 693 
C 422 680 454 680 486 680 
C 640 680 755 782 755 948 
C 755 1133 614 1216 486 1216 
C 378 1216 211 1165 211 926 
C 211 335 787 -128 1466 -128 
C 2176 -128 2720 430 2720 1085 
C 2720 1707 2208 2157 1600 2227 
C 2086 2328 2554 2756 2554 3329 
C 2554 3820 2048 4179 1472 4179 
C 890 4179 378 3829 378 3329 
C 378 3110 544 3072 627 3072 
C 762 3072 877 3155 877 3321 
C 877 3486 762 3569 627 3569 
C 602 3569 570 3569 544 3557 
C 730 3959 1235 4032 1459 4032 
C 1683 4032 2106 3925 2106 3320 
C 2106 3143 2080 2828 1862 2550 
C 1670 2304 1453 2304 1242 2284 
C 1210 2284 1062 2269 1037 2269 
C 992 2263 966 2257 966 2208 
C 966 2163 973 2157 1101 2157 
L 1414 2157 
z
" transform="scale(0.015625)"/>
       <path id="CMR17-37" d="M 2886 3941 
L 2886 4081 
L 1382 4081 
C 634 4081 621 4165 595 4288 
L 480 4288 
L 294 3094 
L 410 3094 
C 429 3215 474 3540 550 3661 
C 589 3712 1062 3712 1171 3712 
L 2579 3712 
L 1869 2661 
C 1395 1954 1069 999 1069 165 
C 1069 89 1069 -128 1299 -128 
C 1530 -128 1530 89 1530 171 
L 1530 465 
C 1530 1508 1709 2196 2003 2636 
L 2886 3941 
z
" transform="scale(0.015625)"/>
      </defs>
      <use xlink:href="#CMR17-53" transform="scale(0.996264)"/>
      <use xlink:href="#CMR17-47" transform="translate(50.89537 0) scale(0.996264)"/>
      <use xlink:href="#CMR17-44" transform="translate(123.250716 0) scale(0.996264)"/>
      <use xlink:href="#CMR17-43" transform="translate(193.644272 0) scale(0.996264)"/>
      <use xlink:href="#CMR17-6c" transform="translate(260.154152 0) scale(0.996264)"/>
      <use xlink:href="#CMR17-61" transform="translate(285.025211 0) scale(0.996264)"/>
      <use xlink:href="#CMR17-73" transform="translate(330.715688 0) scale(0.996264)"/>
      <use xlink:href="#CMR17-73" transform="translate(366.517025 0) scale(0.996264)"/>
      <use xlink:href="#CMR17-69" transform="translate(402.318363 0) scale(0.996264)"/>
      <use xlink:href="#CMR17-c" transform="translate(427.189422 0) scale(0.996264)"/>
      <use xlink:href="#CMR17-65" transform="translate(476.931645 0) scale(0.996264)"/>
      <use xlink:href="#CMR17-72" transform="translate(517.417305 0) scale(0.996264)"/>
      <use xlink:href="#CMR17-28" transform="translate(582.774039 0) scale(0.996264)"/>
      <use xlink:href="#CMR17-42" transform="translate(618.054807 0) scale(0.996264)"/>
      <use xlink:href="#CMR17-65" transform="translate(683.243562 0) scale(0.996264)"/>
      <use xlink:href="#CMR17-73" transform="translate(723.729222 0) scale(0.996264)"/>
      <use xlink:href="#CMR17-74" transform="translate(759.53056 0) scale(0.996264)"/>
      <use xlink:href="#CMMI12-1c" transform="translate(824.887294 0) scale(0.996264)"/>
      <use xlink:href="#CMR17-3d" transform="translate(908.454426 0) scale(0.996264)"/>
      <use xlink:href="#CMR17-30" transform="translate(1010.24518 0) scale(0.996264)"/>
      <use xlink:href="#CMR17-2e" transform="translate(1055.935658 0) scale(0.996264)"/>
      <use xlink:href="#CMR17-33" transform="translate(1080.806716 0) scale(0.996264)"/>
      <use xlink:href="#CMR17-36" transform="translate(1126.497193 0) scale(0.996264)"/>
      <use xlink:href="#CMR17-34" transform="translate(1172.18767 0) scale(0.996264)"/>
      <use xlink:href="#CMR17-2c" transform="translate(1217.878147 0) scale(0.996264)"/>
      <use xlink:href="#CMR17-6e" transform="translate(1272.825172 0) scale(0.996264)"/>
      <use xlink:href="#CMR17-6f" transform="translate(1323.720542 0) scale(0.996264)"/>
      <use xlink:href="#CMR17-72" transform="translate(1369.411019 0) scale(0.996264)"/>
      <use xlink:href="#CMR17-6d" transform="translate(1404.691787 0) scale(0.996264)"/>
      <use xlink:href="#CMR17-4d" transform="translate(1481.611377 0) scale(0.996264)"/>
      <use xlink:href="#CMR17-43" transform="translate(1566.298317 0) scale(0.996264)"/>
      <use xlink:href="#CMR17-43" transform="translate(1632.808198 0) scale(0.996264)"/>
      <use xlink:href="#CMR17-3d" transform="translate(1729.394045 0) scale(0.996264)"/>
      <use xlink:href="#CMR17-30" transform="translate(1831.1848 0) scale(0.996264)"/>
      <use xlink:href="#CMR17-2e" transform="translate(1876.875277 0) scale(0.996264)"/>
      <use xlink:href="#CMR17-38" transform="translate(1901.746335 0) scale(0.996264)"/>
      <use xlink:href="#CMR17-37" transform="translate(1947.436812 0) scale(0.996264)"/>
      <use xlink:href="#CMR17-37" transform="translate(1993.127289 0) scale(0.996264)"/>
      <use xlink:href="#CMR17-29" transform="translate(2038.817767 0) scale(0.996264)"/>
     </g>
    </g>
   </g>
  </g>
 </g>
 <defs>
  <clipPath id="p3ecb5c6a8d">
   <rect x="72" y="69.12" width="446.4" height="443.52"/>
  </clipPath>
 </defs>
</svg>
