<?xml version="1.0" encoding="utf-8" standalone="no"?>
<!DOCTYPE svg PUBLIC "-//W3C//DTD SVG 1.1//EN"
  "http://www.w3.org/Graphics/SVG/1.1/DTD/svg11.dtd">
<svg xmlns:xlink="http://www.w3.org/1999/xlink" width="720pt" height="432pt" viewBox="0 0 720 432" xmlns="http://www.w3.org/2000/svg" version="1.1">
 <metadata>
  <rdf:RDF xmlns:dc="http://purl.org/dc/elements/1.1/" xmlns:cc="http://creativecommons.org/ns#" xmlns:rdf="http://www.w3.org/1999/02/22-rdf-syntax-ns#">
   <cc:Work>
    <dc:type rdf:resource="http://purl.org/dc/dcmitype/StillImage"/>
    <dc:date>2024-10-21T20:24:50.812141</dc:date>
    <dc:format>image/svg+xml</dc:format>
    <dc:creator>
     <cc:Agent>
      <dc:title>Matplotlib v3.9.2, https://matplotlib.org/</dc:title>
     </cc:Agent>
    </dc:creator>
   </cc:Work>
  </rdf:RDF>
 </metadata>
 <defs>
  <style type="text/css">*{stroke-linejoin: round; stroke-linecap: butt}</style>
 </defs>
 <g id="figure_1">
  <g id="patch_1">
   <path d="M 0 432 
L 720 432 
L 720 0 
L 0 0 
z
" style="fill: #ffffff"/>
  </g>
  <g id="axes_1">
   <g id="patch_2">
    <path d="M 50.87281 386.786449 
L 707.04 386.786449 
L 707.04 28.922625 
L 50.87281 28.922625 
z
" style="fill: #ffffff"/>
   </g>
   <g id="PathCollection_1">
    <defs>
     <path id="m68eb8aa460" d="M 0 3 
C 0.795609 3 1.55874 2.683901 2.12132 2.12132 
C 2.683901 1.55874 3 0.795609 3 0 
C 3 -0.795609 2.683901 -1.55874 2.12132 -2.12132 
C 1.55874 -2.683901 0.795609 -3 0 -3 
C -0.795609 -3 -1.55874 -2.683901 -2.12132 -2.12132 
C -2.683901 -1.55874 -3 -0.795609 -3 0 
C -3 0.795609 -2.683901 1.55874 -2.12132 2.12132 
C -1.55874 2.683901 -0.795609 3 0 3 
z
" style="stroke: #ff0000"/>
    </defs>
    <g clip-path="url(#p7e3cb552fc)">
     <use xlink:href="#m68eb8aa460" x="80.698591" y="370.519911" style="fill: #ff0000; stroke: #ff0000"/>
     <use xlink:href="#m68eb8aa460" x="80.790419" y="370.519911" style="fill: #ff0000; stroke: #ff0000"/>
     <use xlink:href="#m68eb8aa460" x="80.831232" y="370.519911" style="fill: #ff0000; stroke: #ff0000"/>
     <use xlink:href="#m68eb8aa460" x="80.882248" y="370.519911" style="fill: #ff0000; stroke: #ff0000"/>
     <use xlink:href="#m68eb8aa460" x="80.943466" y="370.519911" style="fill: #ff0000; stroke: #ff0000"/>
     <use xlink:href="#m68eb8aa460" x="81.004685" y="370.519911" style="fill: #ff0000; stroke: #ff0000"/>
     <use xlink:href="#m68eb8aa460" x="81.0523" y="370.519911" style="fill: #ff0000; stroke: #ff0000"/>
     <use xlink:href="#m68eb8aa460" x="81.065904" y="370.519911" style="fill: #ff0000; stroke: #ff0000"/>
     <use xlink:href="#m68eb8aa460" x="81.140727" y="370.519911" style="fill: #ff0000; stroke: #ff0000"/>
     <use xlink:href="#m68eb8aa460" x="81.188341" y="370.519911" style="fill: #ff0000; stroke: #ff0000"/>
     <use xlink:href="#m68eb8aa460" x="81.229154" y="370.519911" style="fill: #ff0000; stroke: #ff0000"/>
     <use xlink:href="#m68eb8aa460" x="81.24956" y="370.519911" style="fill: #ff0000; stroke: #ff0000"/>
     <use xlink:href="#m68eb8aa460" x="81.310779" y="370.519911" style="fill: #ff0000; stroke: #ff0000"/>
     <use xlink:href="#m68eb8aa460" x="81.341388" y="370.519911" style="fill: #ff0000; stroke: #ff0000"/>
     <use xlink:href="#m68eb8aa460" x="81.406008" y="370.519911" style="fill: #ff0000; stroke: #ff0000"/>
     <use xlink:href="#m68eb8aa460" x="81.433216" y="370.519911" style="fill: #ff0000; stroke: #ff0000"/>
     <use xlink:href="#m68eb8aa460" x="81.494435" y="370.519911" style="fill: #ff0000; stroke: #ff0000"/>
     <use xlink:href="#m68eb8aa460" x="81.525045" y="370.519911" style="fill: #ff0000; stroke: #ff0000"/>
     <use xlink:href="#m68eb8aa460" x="81.582862" y="370.519911" style="fill: #ff0000; stroke: #ff0000"/>
     <use xlink:href="#m68eb8aa460" x="81.627076" y="370.519911" style="fill: #ff0000; stroke: #ff0000"/>
     <use xlink:href="#m68eb8aa460" x="81.678091" y="370.519911" style="fill: #ff0000; stroke: #ff0000"/>
     <use xlink:href="#m68eb8aa460" x="81.759716" y="370.519911" style="fill: #ff0000; stroke: #ff0000"/>
     <use xlink:href="#m68eb8aa460" x="81.76992" y="370.519911" style="fill: #ff0000; stroke: #ff0000"/>
     <use xlink:href="#m68eb8aa460" x="81.800529" y="370.519911" style="fill: #ff0000; stroke: #ff0000"/>
     <use xlink:href="#m68eb8aa460" x="81.892357" y="370.519911" style="fill: #ff0000; stroke: #ff0000"/>
     <use xlink:href="#m68eb8aa460" x="81.922967" y="370.519911" style="fill: #ff0000; stroke: #ff0000"/>
     <use xlink:href="#m68eb8aa460" x="81.984185" y="370.519911" style="fill: #ff0000; stroke: #ff0000"/>
     <use xlink:href="#m68eb8aa460" x="82.045404" y="370.519911" style="fill: #ff0000; stroke: #ff0000"/>
     <use xlink:href="#m68eb8aa460" x="82.113425" y="370.519911" style="fill: #ff0000; stroke: #ff0000"/>
     <use xlink:href="#m68eb8aa460" x="82.167842" y="370.519911" style="fill: #ff0000; stroke: #ff0000"/>
     <use xlink:href="#m68eb8aa460" x="82.22906" y="370.519911" style="fill: #ff0000; stroke: #ff0000"/>
     <use xlink:href="#m68eb8aa460" x="82.246066" y="370.519911" style="fill: #ff0000; stroke: #ff0000"/>
     <use xlink:href="#m68eb8aa460" x="82.290279" y="370.519911" style="fill: #ff0000; stroke: #ff0000"/>
     <use xlink:href="#m68eb8aa460" x="82.351498" y="370.519911" style="fill: #ff0000; stroke: #ff0000"/>
     <use xlink:href="#m68eb8aa460" x="82.467133" y="370.519911" style="fill: #ff0000; stroke: #ff0000"/>
     <use xlink:href="#m68eb8aa460" x="82.535154" y="370.519911" style="fill: #ff0000; stroke: #ff0000"/>
     <use xlink:href="#m68eb8aa460" x="82.643987" y="370.519911" style="fill: #ff0000; stroke: #ff0000"/>
     <use xlink:href="#m68eb8aa460" x="82.657592" y="370.519911" style="fill: #ff0000; stroke: #ff0000"/>
     <use xlink:href="#m68eb8aa460" x="82.820842" y="370.519911" style="fill: #ff0000; stroke: #ff0000"/>
     <use xlink:href="#m68eb8aa460" x="82.841248" y="370.519911" style="fill: #ff0000; stroke: #ff0000"/>
     <use xlink:href="#m68eb8aa460" x="82.902467" y="370.519911" style="fill: #ff0000; stroke: #ff0000"/>
     <use xlink:href="#m68eb8aa460" x="82.909269" y="370.519911" style="fill: #ff0000; stroke: #ff0000"/>
     <use xlink:href="#m68eb8aa460" x="83.086123" y="370.519911" style="fill: #ff0000; stroke: #ff0000"/>
     <use xlink:href="#m68eb8aa460" x="83.147342" y="370.519911" style="fill: #ff0000; stroke: #ff0000"/>
     <use xlink:href="#m68eb8aa460" x="83.269779" y="370.519911" style="fill: #ff0000; stroke: #ff0000"/>
     <use xlink:href="#m68eb8aa460" x="83.351404" y="370.519911" style="fill: #ff0000; stroke: #ff0000"/>
     <use xlink:href="#m68eb8aa460" x="83.392217" y="370.519911" style="fill: #ff0000; stroke: #ff0000"/>
     <use xlink:href="#m68eb8aa460" x="83.453436" y="370.519911" style="fill: #ff0000; stroke: #ff0000"/>
     <use xlink:href="#m68eb8aa460" x="83.528259" y="370.519911" style="fill: #ff0000; stroke: #ff0000"/>
     <use xlink:href="#m68eb8aa460" x="83.637092" y="370.519911" style="fill: #ff0000; stroke: #ff0000"/>
     <use xlink:href="#m68eb8aa460" x="83.759529" y="370.519911" style="fill: #ff0000; stroke: #ff0000"/>
     <use xlink:href="#m68eb8aa460" x="83.881967" y="370.519911" style="fill: #ff0000; stroke: #ff0000"/>
     <use xlink:href="#m68eb8aa460" x="84.004404" y="370.519911" style="fill: #ff0000; stroke: #ff0000"/>
     <use xlink:href="#m68eb8aa460" x="84.235675" y="370.519911" style="fill: #ff0000; stroke: #ff0000"/>
     <use xlink:href="#m68eb8aa460" x="84.371717" y="370.519911" style="fill: #ff0000; stroke: #ff0000"/>
     <use xlink:href="#m68eb8aa460" x="84.41253" y="370.519911" style="fill: #ff0000; stroke: #ff0000"/>
     <use xlink:href="#m68eb8aa460" x="84.616592" y="370.519911" style="fill: #ff0000; stroke: #ff0000"/>
     <use xlink:href="#m68eb8aa460" x="84.677811" y="370.519911" style="fill: #ff0000; stroke: #ff0000"/>
     <use xlink:href="#m68eb8aa460" x="84.830858" y="370.519911" style="fill: #ff0000; stroke: #ff0000"/>
     <use xlink:href="#m68eb8aa460" x="84.943092" y="370.519911" style="fill: #ff0000; stroke: #ff0000"/>
     <use xlink:href="#m68eb8aa460" x="84.983905" y="370.519911" style="fill: #ff0000; stroke: #ff0000"/>
     <use xlink:href="#m68eb8aa460" x="85.106342" y="370.519911" style="fill: #ff0000; stroke: #ff0000"/>
     <use xlink:href="#m68eb8aa460" x="85.473655" y="370.519911" style="fill: #ff0000; stroke: #ff0000"/>
     <use xlink:href="#m68eb8aa460" x="85.596092" y="370.519911" style="fill: #ff0000; stroke: #ff0000"/>
     <use xlink:href="#m68eb8aa460" x="85.657311" y="370.519911" style="fill: #ff0000; stroke: #ff0000"/>
     <use xlink:href="#m68eb8aa460" x="85.840967" y="370.519911" style="fill: #ff0000; stroke: #ff0000"/>
     <use xlink:href="#m68eb8aa460" x="86.004217" y="370.519911" style="fill: #ff0000; stroke: #ff0000"/>
     <use xlink:href="#m68eb8aa460" x="86.20828" y="370.519911" style="fill: #ff0000; stroke: #ff0000"/>
     <use xlink:href="#m68eb8aa460" x="86.357926" y="370.519911" style="fill: #ff0000; stroke: #ff0000"/>
     <use xlink:href="#m68eb8aa460" x="86.483764" y="370.519911" style="fill: #ff0000; stroke: #ff0000"/>
     <use xlink:href="#m68eb8aa460" x="86.575592" y="370.519911" style="fill: #ff0000; stroke: #ff0000"/>
     <use xlink:href="#m68eb8aa460" x="86.667421" y="370.519911" style="fill: #ff0000; stroke: #ff0000"/>
     <use xlink:href="#m68eb8aa460" x="86.820468" y="370.519911" style="fill: #ff0000; stroke: #ff0000"/>
     <use xlink:href="#m68eb8aa460" x="86.888488" y="370.519911" style="fill: #ff0000; stroke: #ff0000"/>
     <use xlink:href="#m68eb8aa460" x="87.065343" y="370.519911" style="fill: #ff0000; stroke: #ff0000"/>
     <use xlink:href="#m68eb8aa460" x="87.126561" y="370.519911" style="fill: #ff0000; stroke: #ff0000"/>
     <use xlink:href="#m68eb8aa460" x="87.310218" y="370.519911" style="fill: #ff0000; stroke: #ff0000"/>
     <use xlink:href="#m68eb8aa460" x="87.432655" y="370.519911" style="fill: #ff0000; stroke: #ff0000"/>
     <use xlink:href="#m68eb8aa460" x="87.555093" y="370.519911" style="fill: #ff0000; stroke: #ff0000"/>
     <use xlink:href="#m68eb8aa460" x="87.772759" y="370.519911" style="fill: #ff0000; stroke: #ff0000"/>
     <use xlink:href="#m68eb8aa460" x="87.861187" y="370.519911" style="fill: #ff0000; stroke: #ff0000"/>
     <use xlink:href="#m68eb8aa460" x="88.044843" y="370.519911" style="fill: #ff0000; stroke: #ff0000"/>
     <use xlink:href="#m68eb8aa460" x="88.534593" y="370.519911" style="fill: #ff0000; stroke: #ff0000"/>
     <use xlink:href="#m68eb8aa460" x="88.65703" y="370.519911" style="fill: #ff0000; stroke: #ff0000"/>
     <use xlink:href="#m68eb8aa460" x="88.963124" y="370.519911" style="fill: #ff0000; stroke: #ff0000"/>
     <use xlink:href="#m68eb8aa460" x="89.054952" y="370.519911" style="fill: #ff0000; stroke: #ff0000"/>
     <use xlink:href="#m68eb8aa460" x="89.187593" y="370.519911" style="fill: #ff0000; stroke: #ff0000"/>
     <use xlink:href="#m68eb8aa460" x="89.269218" y="370.519911" style="fill: #ff0000; stroke: #ff0000"/>
     <use xlink:href="#m68eb8aa460" x="89.514093" y="370.519911" style="fill: #ff0000; stroke: #ff0000"/>
     <use xlink:href="#m68eb8aa460" x="89.541301" y="370.519911" style="fill: #ff0000; stroke: #ff0000"/>
     <use xlink:href="#m68eb8aa460" x="89.881406" y="370.519911" style="fill: #ff0000; stroke: #ff0000"/>
     <use xlink:href="#m68eb8aa460" x="89.983437" y="370.519911" style="fill: #ff0000; stroke: #ff0000"/>
     <use xlink:href="#m68eb8aa460" x="90.248718" y="370.519911" style="fill: #ff0000; stroke: #ff0000"/>
     <use xlink:href="#m68eb8aa460" x="90.340546" y="370.519911" style="fill: #ff0000; stroke: #ff0000"/>
     <use xlink:href="#m68eb8aa460" x="90.425572" y="370.519911" style="fill: #ff0000; stroke: #ff0000"/>
     <use xlink:href="#m68eb8aa460" x="90.493593" y="370.519911" style="fill: #ff0000; stroke: #ff0000"/>
     <use xlink:href="#m68eb8aa460" x="90.602427" y="370.519911" style="fill: #ff0000; stroke: #ff0000"/>
     <use xlink:href="#m68eb8aa460" x="90.616031" y="370.519911" style="fill: #ff0000; stroke: #ff0000"/>
     <use xlink:href="#m68eb8aa460" x="90.983343" y="370.519911" style="fill: #ff0000; stroke: #ff0000"/>
     <use xlink:href="#m68eb8aa460" x="91.309844" y="370.519911" style="fill: #ff0000; stroke: #ff0000"/>
     <use xlink:href="#m68eb8aa460" x="91.473094" y="370.519911" style="fill: #ff0000; stroke: #ff0000"/>
     <use xlink:href="#m68eb8aa460" x="91.717969" y="370.519911" style="fill: #ff0000; stroke: #ff0000"/>
     <use xlink:href="#m68eb8aa460" x="92.194115" y="370.519911" style="fill: #ff0000; stroke: #ff0000"/>
     <use xlink:href="#m68eb8aa460" x="92.268937" y="370.519911" style="fill: #ff0000; stroke: #ff0000"/>
     <use xlink:href="#m68eb8aa460" x="92.452594" y="370.519911" style="fill: #ff0000; stroke: #ff0000"/>
     <use xlink:href="#m68eb8aa460" x="92.942344" y="370.519911" style="fill: #ff0000; stroke: #ff0000"/>
     <use xlink:href="#m68eb8aa460" x="93.078386" y="370.519911" style="fill: #ff0000; stroke: #ff0000"/>
     <use xlink:href="#m68eb8aa460" x="93.554531" y="370.519911" style="fill: #ff0000; stroke: #ff0000"/>
     <use xlink:href="#m68eb8aa460" x="93.921844" y="370.519911" style="fill: #ff0000; stroke: #ff0000"/>
     <use xlink:href="#m68eb8aa460" x="93.962657" y="370.519911" style="fill: #ff0000; stroke: #ff0000"/>
     <use xlink:href="#m68eb8aa460" x="94.166719" y="370.519911" style="fill: #ff0000; stroke: #ff0000"/>
     <use xlink:href="#m68eb8aa460" x="94.411594" y="370.519911" style="fill: #ff0000; stroke: #ff0000"/>
     <use xlink:href="#m68eb8aa460" x="94.62586" y="370.519911" style="fill: #ff0000; stroke: #ff0000"/>
     <use xlink:href="#m68eb8aa460" x="95.023782" y="370.519911" style="fill: #ff0000; stroke: #ff0000"/>
     <use xlink:href="#m68eb8aa460" x="95.268657" y="370.519911" style="fill: #ff0000; stroke: #ff0000"/>
     <use xlink:href="#m68eb8aa460" x="95.391094" y="370.519911" style="fill: #ff0000; stroke: #ff0000"/>
     <use xlink:href="#m68eb8aa460" x="95.554344" y="370.519911" style="fill: #ff0000; stroke: #ff0000"/>
     <use xlink:href="#m68eb8aa460" x="95.850235" y="370.519911" style="fill: #ff0000; stroke: #ff0000"/>
     <use xlink:href="#m68eb8aa460" x="96.261761" y="370.519911" style="fill: #ff0000; stroke: #ff0000"/>
     <use xlink:href="#m68eb8aa460" x="96.370595" y="370.519911" style="fill: #ff0000; stroke: #ff0000"/>
     <use xlink:href="#m68eb8aa460" x="96.61547" y="370.519911" style="fill: #ff0000; stroke: #ff0000"/>
     <use xlink:href="#m68eb8aa460" x="96.860345" y="370.519911" style="fill: #ff0000; stroke: #ff0000"/>
     <use xlink:href="#m68eb8aa460" x="97.676595" y="370.519911" style="fill: #ff0000; stroke: #ff0000"/>
     <use xlink:href="#m68eb8aa460" x="97.839845" y="370.519911" style="fill: #ff0000; stroke: #ff0000"/>
     <use xlink:href="#m68eb8aa460" x="98.054111" y="370.519911" style="fill: #ff0000; stroke: #ff0000"/>
     <use xlink:href="#m68eb8aa460" x="98.329595" y="370.519911" style="fill: #ff0000; stroke: #ff0000"/>
     <use xlink:href="#m68eb8aa460" x="98.605079" y="370.519911" style="fill: #ff0000; stroke: #ff0000"/>
     <use xlink:href="#m68eb8aa460" x="99.06422" y="370.519911" style="fill: #ff0000; stroke: #ff0000"/>
     <use xlink:href="#m68eb8aa460" x="99.268283" y="370.519911" style="fill: #ff0000; stroke: #ff0000"/>
     <use xlink:href="#m68eb8aa460" x="99.798845" y="370.519911" style="fill: #ff0000; stroke: #ff0000"/>
     <use xlink:href="#m68eb8aa460" x="99.982502" y="370.519911" style="fill: #ff0000; stroke: #ff0000"/>
     <use xlink:href="#m68eb8aa460" x="100.53347" y="370.519911" style="fill: #ff0000; stroke: #ff0000"/>
     <use xlink:href="#m68eb8aa460" x="100.900783" y="370.519911" style="fill: #ff0000; stroke: #ff0000"/>
     <use xlink:href="#m68eb8aa460" x="101.268096" y="370.519911" style="fill: #ff0000; stroke: #ff0000"/>
     <use xlink:href="#m68eb8aa460" x="101.744242" y="370.519911" style="fill: #ff0000; stroke: #ff0000"/>
     <use xlink:href="#m68eb8aa460" x="102.247596" y="370.519911" style="fill: #ff0000; stroke: #ff0000"/>
     <use xlink:href="#m68eb8aa460" x="102.584299" y="370.519911" style="fill: #ff0000; stroke: #ff0000"/>
     <use xlink:href="#m68eb8aa460" x="102.737346" y="370.519911" style="fill: #ff0000; stroke: #ff0000"/>
     <use xlink:href="#m68eb8aa460" x="103.335929" y="370.519911" style="fill: #ff0000; stroke: #ff0000"/>
     <use xlink:href="#m68eb8aa460" x="103.839284" y="370.519911" style="fill: #ff0000; stroke: #ff0000"/>
     <use xlink:href="#m68eb8aa460" x="104.043346" y="370.519911" style="fill: #ff0000; stroke: #ff0000"/>
     <use xlink:href="#m68eb8aa460" x="104.206596" y="370.519911" style="fill: #ff0000; stroke: #ff0000"/>
     <use xlink:href="#m68eb8aa460" x="105.767675" y="370.519911" style="fill: #ff0000; stroke: #ff0000"/>
     <use xlink:href="#m68eb8aa460" x="106.165597" y="370.519911" style="fill: #ff0000; stroke: #ff0000"/>
     <use xlink:href="#m68eb8aa460" x="106.410472" y="370.519911" style="fill: #ff0000; stroke: #ff0000"/>
     <use xlink:href="#m68eb8aa460" x="106.563519" y="370.519911" style="fill: #ff0000; stroke: #ff0000"/>
     <use xlink:href="#m68eb8aa460" x="107.145097" y="370.519911" style="fill: #ff0000; stroke: #ff0000"/>
     <use xlink:href="#m68eb8aa460" x="108.553128" y="370.519911" style="fill: #ff0000; stroke: #ff0000"/>
     <use xlink:href="#m68eb8aa460" x="109.624457" y="370.519911" style="fill: #ff0000; stroke: #ff0000"/>
     <use xlink:href="#m68eb8aa460" x="109.838722" y="370.519911" style="fill: #ff0000; stroke: #ff0000"/>
     <use xlink:href="#m68eb8aa460" x="109.879535" y="370.519911" style="fill: #ff0000; stroke: #ff0000"/>
     <use xlink:href="#m68eb8aa460" x="111.001879" y="370.519911" style="fill: #ff0000; stroke: #ff0000"/>
     <use xlink:href="#m68eb8aa460" x="111.552848" y="370.519911" style="fill: #ff0000; stroke: #ff0000"/>
     <use xlink:href="#m68eb8aa460" x="111.824931" y="370.519911" style="fill: #ff0000; stroke: #ff0000"/>
     <use xlink:href="#m68eb8aa460" x="112.042598" y="370.519911" style="fill: #ff0000; stroke: #ff0000"/>
     <use xlink:href="#m68eb8aa460" x="112.532348" y="370.519911" style="fill: #ff0000; stroke: #ff0000"/>
     <use xlink:href="#m68eb8aa460" x="113.022098" y="370.519911" style="fill: #ff0000; stroke: #ff0000"/>
     <use xlink:href="#m68eb8aa460" x="114.124036" y="370.519911" style="fill: #ff0000; stroke: #ff0000"/>
     <use xlink:href="#m68eb8aa460" x="114.654598" y="370.519911" style="fill: #ff0000; stroke: #ff0000"/>
     <use xlink:href="#m68eb8aa460" x="115.40963" y="370.519911" style="fill: #ff0000; stroke: #ff0000"/>
     <use xlink:href="#m68eb8aa460" x="115.960599" y="370.519911" style="fill: #ff0000; stroke: #ff0000"/>
     <use xlink:href="#m68eb8aa460" x="116.511568" y="370.519911" style="fill: #ff0000; stroke: #ff0000"/>
     <use xlink:href="#m68eb8aa460" x="117.062537" y="370.519911" style="fill: #ff0000; stroke: #ff0000"/>
     <use xlink:href="#m68eb8aa460" x="117.429849" y="370.519911" style="fill: #ff0000; stroke: #ff0000"/>
     <use xlink:href="#m68eb8aa460" x="118.899099" y="370.519911" style="fill: #ff0000; stroke: #ff0000"/>
     <use xlink:href="#m68eb8aa460" x="119.266412" y="370.519911" style="fill: #ff0000; stroke: #ff0000"/>
     <use xlink:href="#m68eb8aa460" x="121.102975" y="370.519911" style="fill: #ff0000; stroke: #ff0000"/>
     <use xlink:href="#m68eb8aa460" x="121.8376" y="370.519911" style="fill: #ff0000; stroke: #ff0000"/>
     <use xlink:href="#m68eb8aa460" x="122.480397" y="370.519911" style="fill: #ff0000; stroke: #ff0000"/>
     <use xlink:href="#m68eb8aa460" x="122.572225" y="370.519911" style="fill: #ff0000; stroke: #ff0000"/>
     <use xlink:href="#m68eb8aa460" x="123.7966" y="370.519911" style="fill: #ff0000; stroke: #ff0000"/>
     <use xlink:href="#m68eb8aa460" x="124.776101" y="370.519911" style="fill: #ff0000; stroke: #ff0000"/>
     <use xlink:href="#m68eb8aa460" x="125.265851" y="370.519911" style="fill: #ff0000; stroke: #ff0000"/>
     <use xlink:href="#m68eb8aa460" x="126.153523" y="370.519911" style="fill: #ff0000; stroke: #ff0000"/>
     <use xlink:href="#m68eb8aa460" x="126.680684" y="370.519911" style="fill: #ff0000; stroke: #ff0000"/>
     <use xlink:href="#m68eb8aa460" x="126.979976" y="370.519911" style="fill: #ff0000; stroke: #ff0000"/>
     <use xlink:href="#m68eb8aa460" x="127.388101" y="370.519911" style="fill: #ff0000; stroke: #ff0000"/>
     <use xlink:href="#m68eb8aa460" x="127.714601" y="370.519911" style="fill: #ff0000; stroke: #ff0000"/>
     <use xlink:href="#m68eb8aa460" x="133.22429" y="370.519911" style="fill: #ff0000; stroke: #ff0000"/>
     <use xlink:href="#m68eb8aa460" x="133.591603" y="370.519911" style="fill: #ff0000; stroke: #ff0000"/>
     <use xlink:href="#m68eb8aa460" x="133.754853" y="370.519911" style="fill: #ff0000; stroke: #ff0000"/>
     <use xlink:href="#m68eb8aa460" x="136.407666" y="370.519911" style="fill: #ff0000; stroke: #ff0000"/>
     <use xlink:href="#m68eb8aa460" x="137.632041" y="370.519911" style="fill: #ff0000; stroke: #ff0000"/>
     <use xlink:href="#m68eb8aa460" x="137.999353" y="370.519911" style="fill: #ff0000; stroke: #ff0000"/>
     <use xlink:href="#m68eb8aa460" x="138.550322" y="370.519911" style="fill: #ff0000; stroke: #ff0000"/>
     <use xlink:href="#m68eb8aa460" x="140.121604" y="370.519911" style="fill: #ff0000; stroke: #ff0000"/>
     <use xlink:href="#m68eb8aa460" x="141.182729" y="370.519911" style="fill: #ff0000; stroke: #ff0000"/>
     <use xlink:href="#m68eb8aa460" x="142.407104" y="370.519911" style="fill: #ff0000; stroke: #ff0000"/>
     <use xlink:href="#m68eb8aa460" x="144.060011" y="370.519911" style="fill: #ff0000; stroke: #ff0000"/>
     <use xlink:href="#m68eb8aa460" x="144.366105" y="370.519911" style="fill: #ff0000; stroke: #ff0000"/>
     <use xlink:href="#m68eb8aa460" x="145.345605" y="370.519911" style="fill: #ff0000; stroke: #ff0000"/>
     <use xlink:href="#m68eb8aa460" x="146.355715" y="370.519911" style="fill: #ff0000; stroke: #ff0000"/>
     <use xlink:href="#m68eb8aa460" x="149.263606" y="370.519911" style="fill: #ff0000; stroke: #ff0000"/>
     <use xlink:href="#m68eb8aa460" x="152.324544" y="370.519911" style="fill: #ff0000; stroke: #ff0000"/>
     <use xlink:href="#m68eb8aa460" x="153.426482" y="370.519911" style="fill: #ff0000; stroke: #ff0000"/>
     <use xlink:href="#m68eb8aa460" x="153.977451" y="370.519911" style="fill: #ff0000; stroke: #ff0000"/>
     <use xlink:href="#m68eb8aa460" x="154.161107" y="370.519911" style="fill: #ff0000; stroke: #ff0000"/>
     <use xlink:href="#m68eb8aa460" x="157.834233" y="370.519911" style="fill: #ff0000; stroke: #ff0000"/>
     <use xlink:href="#m68eb8aa460" x="162.935796" y="370.519911" style="fill: #ff0000; stroke: #ff0000"/>
     <use xlink:href="#m68eb8aa460" x="162.976609" y="370.519911" style="fill: #ff0000; stroke: #ff0000"/>
     <use xlink:href="#m68eb8aa460" x="163.466359" y="370.519911" style="fill: #ff0000; stroke: #ff0000"/>
     <use xlink:href="#m68eb8aa460" x="164.445859" y="370.519911" style="fill: #ff0000; stroke: #ff0000"/>
     <use xlink:href="#m68eb8aa460" x="167.996547" y="370.519911" style="fill: #ff0000; stroke: #ff0000"/>
     <use xlink:href="#m68eb8aa460" x="169.83311" y="370.519911" style="fill: #ff0000; stroke: #ff0000"/>
     <use xlink:href="#m68eb8aa460" x="171.608454" y="370.519911" style="fill: #ff0000; stroke: #ff0000"/>
     <use xlink:href="#m68eb8aa460" x="172.220642" y="370.519911" style="fill: #ff0000; stroke: #ff0000"/>
     <use xlink:href="#m68eb8aa460" x="177.669112" y="370.519911" style="fill: #ff0000; stroke: #ff0000"/>
     <use xlink:href="#m68eb8aa460" x="179.736946" y="370.519911" style="fill: #ff0000; stroke: #ff0000"/>
     <use xlink:href="#m68eb8aa460" x="184.158301" y="370.519911" style="fill: #ff0000; stroke: #ff0000"/>
     <use xlink:href="#m68eb8aa460" x="186.545833" y="370.519911" style="fill: #ff0000; stroke: #ff0000"/>
     <use xlink:href="#m68eb8aa460" x="190.892365" y="370.519911" style="fill: #ff0000; stroke: #ff0000"/>
     <use xlink:href="#m68eb8aa460" x="194.565491" y="370.519911" style="fill: #ff0000; stroke: #ff0000"/>
     <use xlink:href="#m68eb8aa460" x="195.300116" y="370.519911" style="fill: #ff0000; stroke: #ff0000"/>
     <use xlink:href="#m68eb8aa460" x="196.402053" y="370.519911" style="fill: #ff0000; stroke: #ff0000"/>
     <use xlink:href="#m68eb8aa460" x="204.115618" y="370.519911" style="fill: #ff0000; stroke: #ff0000"/>
     <use xlink:href="#m68eb8aa460" x="206.795639" y="370.519911" style="fill: #ff0000; stroke: #ff0000"/>
     <use xlink:href="#m68eb8aa460" x="207.421431" y="370.519911" style="fill: #ff0000; stroke: #ff0000"/>
     <use xlink:href="#m68eb8aa460" x="217.828621" y="370.519911" style="fill: #ff0000; stroke: #ff0000"/>
     <use xlink:href="#m68eb8aa460" x="220.767121" y="370.519911" style="fill: #ff0000; stroke: #ff0000"/>
     <use xlink:href="#m68eb8aa460" x="223.950497" y="370.519911" style="fill: #ff0000; stroke: #ff0000"/>
     <use xlink:href="#m68eb8aa460" x="227.25631" y="370.519911" style="fill: #ff0000; stroke: #ff0000"/>
     <use xlink:href="#m68eb8aa460" x="239.867375" y="370.519911" style="fill: #ff0000; stroke: #ff0000"/>
     <use xlink:href="#m68eb8aa460" x="246.234127" y="370.519911" style="fill: #ff0000; stroke: #ff0000"/>
     <use xlink:href="#m68eb8aa460" x="247.825814" y="370.519911" style="fill: #ff0000; stroke: #ff0000"/>
     <use xlink:href="#m68eb8aa460" x="255.294504" y="370.519911" style="fill: #ff0000; stroke: #ff0000"/>
     <use xlink:href="#m68eb8aa460" x="262.518318" y="370.519911" style="fill: #ff0000; stroke: #ff0000"/>
     <use xlink:href="#m68eb8aa460" x="265.334381" y="370.519911" style="fill: #ff0000; stroke: #ff0000"/>
     <use xlink:href="#m68eb8aa460" x="274.639633" y="370.519911" style="fill: #ff0000; stroke: #ff0000"/>
     <use xlink:href="#m68eb8aa460" x="301.086138" y="370.519911" style="fill: #ff0000; stroke: #ff0000"/>
     <use xlink:href="#m68eb8aa460" x="309.90164" y="370.519911" style="fill: #ff0000; stroke: #ff0000"/>
     <use xlink:href="#m68eb8aa460" x="312.105516" y="370.519911" style="fill: #ff0000; stroke: #ff0000"/>
     <use xlink:href="#m68eb8aa460" x="343.327085" y="370.519911" style="fill: #ff0000; stroke: #ff0000"/>
     <use xlink:href="#m68eb8aa460" x="347.394732" y="370.519911" style="fill: #ff0000; stroke: #ff0000"/>
     <use xlink:href="#m68eb8aa460" x="378.956405" y="370.519911" style="fill: #ff0000; stroke: #ff0000"/>
     <use xlink:href="#m68eb8aa460" x="444.338044" y="370.519911" style="fill: #ff0000; stroke: #ff0000"/>
     <use xlink:href="#m68eb8aa460" x="449.97017" y="370.519911" style="fill: #ff0000; stroke: #ff0000"/>
     <use xlink:href="#m68eb8aa460" x="511.515433" y="370.519911" style="fill: #ff0000; stroke: #ff0000"/>
     <use xlink:href="#m68eb8aa460" x="677.214219" y="370.519911" style="fill: #ff0000; stroke: #ff0000"/>
    </g>
   </g>
   <g id="matplotlib.axis_1">
    <g id="xtick_1">
     <g id="line2d_1">
      <defs>
       <path id="md98b4d6815" d="M 0 0 
L 0 3.5 
" style="stroke: #000000; stroke-width: 0.8"/>
      </defs>
      <g>
       <use xlink:href="#md98b4d6815" x="80.698591" y="386.786449" style="stroke: #000000; stroke-width: 0.8"/>
      </g>
     </g>
     <g id="text_1">
      <!-- $\mathdefault{0}$ -->
      <g transform="translate(77.772096 402.088629) scale(0.12 -0.12)">
       <defs>
        <path id="CMR17-30" d="M 2688 2025 
C 2688 2416 2682 3080 2413 3591 
C 2176 4039 1798 4198 1466 4198 
C 1158 4198 768 4058 525 3597 
C 269 3118 243 2524 243 2025 
C 243 1661 250 1106 448 619 
C 723 -39 1216 -128 1466 -128 
C 1760 -128 2208 -7 2470 600 
C 2662 1042 2688 1559 2688 2025 
z
M 1466 -26 
C 1056 -26 813 325 723 812 
C 653 1188 653 1738 653 2096 
C 653 2588 653 2997 736 3387 
C 858 3929 1216 4096 1466 4096 
C 1728 4096 2067 3923 2189 3400 
C 2272 3036 2278 2607 2278 2096 
C 2278 1680 2278 1169 2202 792 
C 2067 95 1690 -26 1466 -26 
z
" transform="scale(0.015625)"/>
       </defs>
       <use xlink:href="#CMR17-30" transform="scale(0.996264)"/>
      </g>
     </g>
    </g>
    <g id="xtick_2">
     <g id="line2d_2">
      <g>
       <use xlink:href="#md98b4d6815" x="165.724651" y="386.786449" style="stroke: #000000; stroke-width: 0.8"/>
      </g>
     </g>
     <g id="text_2">
      <!-- $\mathdefault{25000}$ -->
      <g transform="translate(151.092175 402.088629) scale(0.12 -0.12)">
       <defs>
        <path id="CMR17-32" d="M 2669 989 
L 2554 989 
C 2490 536 2438 459 2413 420 
C 2381 369 1920 369 1830 369 
L 602 369 
C 832 619 1280 1072 1824 1597 
C 2214 1967 2669 2402 2669 3035 
C 2669 3790 2067 4224 1395 4224 
C 691 4224 262 3604 262 3030 
C 262 2780 448 2748 525 2748 
C 589 2748 781 2787 781 3010 
C 781 3207 614 3264 525 3264 
C 486 3264 448 3258 422 3245 
C 544 3790 915 4058 1306 4058 
C 1862 4058 2227 3617 2227 3035 
C 2227 2479 1901 2000 1536 1584 
L 262 146 
L 262 0 
L 2515 0 
L 2669 989 
z
" transform="scale(0.015625)"/>
        <path id="CMR17-35" d="M 730 3692 
C 794 3666 1056 3584 1325 3584 
C 1920 3584 2246 3911 2432 4100 
C 2432 4157 2432 4192 2394 4192 
C 2387 4192 2374 4192 2323 4163 
C 2099 4058 1837 3973 1517 3973 
C 1325 3973 1037 3999 723 4139 
C 653 4171 640 4171 634 4171 
C 602 4171 595 4164 595 4037 
L 595 2203 
C 595 2089 595 2057 659 2057 
C 691 2057 704 2070 736 2114 
C 941 2401 1222 2522 1542 2522 
C 1766 2522 2246 2382 2246 1289 
C 2246 1085 2246 715 2054 421 
C 1894 159 1645 25 1370 25 
C 947 25 518 320 403 814 
C 429 807 480 795 506 795 
C 589 795 749 840 749 1038 
C 749 1210 627 1280 506 1280 
C 358 1280 262 1190 262 1011 
C 262 454 704 -128 1382 -128 
C 2042 -128 2669 440 2669 1264 
C 2669 2030 2170 2624 1549 2624 
C 1222 2624 947 2503 730 2274 
L 730 3692 
z
" transform="scale(0.015625)"/>
       </defs>
       <use xlink:href="#CMR17-32" transform="scale(0.996264)"/>
       <use xlink:href="#CMR17-35" transform="translate(45.690477 0) scale(0.996264)"/>
       <use xlink:href="#CMR17-30" transform="translate(91.380954 0) scale(0.996264)"/>
       <use xlink:href="#CMR17-30" transform="translate(137.071431 0) scale(0.996264)"/>
       <use xlink:href="#CMR17-30" transform="translate(182.761908 0) scale(0.996264)"/>
      </g>
     </g>
    </g>
    <g id="xtick_3">
     <g id="line2d_3">
      <g>
       <use xlink:href="#md98b4d6815" x="250.750711" y="386.786449" style="stroke: #000000; stroke-width: 0.8"/>
      </g>
     </g>
     <g id="text_3">
      <!-- $\mathdefault{50000}$ -->
      <g transform="translate(236.118235 402.088629) scale(0.12 -0.12)">
       <use xlink:href="#CMR17-35" transform="scale(0.996264)"/>
       <use xlink:href="#CMR17-30" transform="translate(45.690477 0) scale(0.996264)"/>
       <use xlink:href="#CMR17-30" transform="translate(91.380954 0) scale(0.996264)"/>
       <use xlink:href="#CMR17-30" transform="translate(137.071431 0) scale(0.996264)"/>
       <use xlink:href="#CMR17-30" transform="translate(182.761908 0) scale(0.996264)"/>
      </g>
     </g>
    </g>
    <g id="xtick_4">
     <g id="line2d_4">
      <g>
       <use xlink:href="#md98b4d6815" x="335.776771" y="386.786449" style="stroke: #000000; stroke-width: 0.8"/>
      </g>
     </g>
     <g id="text_4">
      <!-- $\mathdefault{75000}$ -->
      <g transform="translate(321.144295 402.088629) scale(0.12 -0.12)">
       <defs>
        <path id="CMR17-37" d="M 2886 3941 
L 2886 4081 
L 1382 4081 
C 634 4081 621 4165 595 4288 
L 480 4288 
L 294 3094 
L 410 3094 
C 429 3215 474 3540 550 3661 
C 589 3712 1062 3712 1171 3712 
L 2579 3712 
L 1869 2661 
C 1395 1954 1069 999 1069 165 
C 1069 89 1069 -128 1299 -128 
C 1530 -128 1530 89 1530 171 
L 1530 465 
C 1530 1508 1709 2196 2003 2636 
L 2886 3941 
z
" transform="scale(0.015625)"/>
       </defs>
       <use xlink:href="#CMR17-37" transform="scale(0.996264)"/>
       <use xlink:href="#CMR17-35" transform="translate(45.690477 0) scale(0.996264)"/>
       <use xlink:href="#CMR17-30" transform="translate(91.380954 0) scale(0.996264)"/>
       <use xlink:href="#CMR17-30" transform="translate(137.071431 0) scale(0.996264)"/>
       <use xlink:href="#CMR17-30" transform="translate(182.761908 0) scale(0.996264)"/>
      </g>
     </g>
    </g>
    <g id="xtick_5">
     <g id="line2d_5">
      <g>
       <use xlink:href="#md98b4d6815" x="420.802831" y="386.786449" style="stroke: #000000; stroke-width: 0.8"/>
      </g>
     </g>
     <g id="text_5">
      <!-- $\mathdefault{100000}$ -->
      <g transform="translate(403.24386 402.088629) scale(0.12 -0.12)">
       <defs>
        <path id="CMR17-31" d="M 1702 4058 
C 1702 4192 1696 4192 1606 4192 
C 1357 3916 979 3827 621 3827 
C 602 3827 570 3827 563 3808 
C 557 3795 557 3782 557 3648 
C 755 3648 1088 3686 1344 3839 
L 1344 461 
C 1344 236 1331 160 781 160 
L 589 160 
L 589 0 
C 896 0 1216 0 1523 0 
C 1830 0 2150 0 2458 0 
L 2458 160 
L 2266 160 
C 1715 160 1702 230 1702 458 
L 1702 4058 
z
" transform="scale(0.015625)"/>
       </defs>
       <use xlink:href="#CMR17-31" transform="scale(0.996264)"/>
       <use xlink:href="#CMR17-30" transform="translate(45.690477 0) scale(0.996264)"/>
       <use xlink:href="#CMR17-30" transform="translate(91.380954 0) scale(0.996264)"/>
       <use xlink:href="#CMR17-30" transform="translate(137.071431 0) scale(0.996264)"/>
       <use xlink:href="#CMR17-30" transform="translate(182.761908 0) scale(0.996264)"/>
       <use xlink:href="#CMR17-30" transform="translate(228.452386 0) scale(0.996264)"/>
      </g>
     </g>
    </g>
    <g id="xtick_6">
     <g id="line2d_6">
      <g>
       <use xlink:href="#md98b4d6815" x="505.82889" y="386.786449" style="stroke: #000000; stroke-width: 0.8"/>
      </g>
     </g>
     <g id="text_6">
      <!-- $\mathdefault{125000}$ -->
      <g transform="translate(488.26992 402.088629) scale(0.12 -0.12)">
       <use xlink:href="#CMR17-31" transform="scale(0.996264)"/>
       <use xlink:href="#CMR17-32" transform="translate(45.690477 0) scale(0.996264)"/>
       <use xlink:href="#CMR17-35" transform="translate(91.380954 0) scale(0.996264)"/>
       <use xlink:href="#CMR17-30" transform="translate(137.071431 0) scale(0.996264)"/>
       <use xlink:href="#CMR17-30" transform="translate(182.761908 0) scale(0.996264)"/>
       <use xlink:href="#CMR17-30" transform="translate(228.452386 0) scale(0.996264)"/>
      </g>
     </g>
    </g>
    <g id="xtick_7">
     <g id="line2d_7">
      <g>
       <use xlink:href="#md98b4d6815" x="590.85495" y="386.786449" style="stroke: #000000; stroke-width: 0.8"/>
      </g>
     </g>
     <g id="text_7">
      <!-- $\mathdefault{150000}$ -->
      <g transform="translate(573.295979 402.088629) scale(0.12 -0.12)">
       <use xlink:href="#CMR17-31" transform="scale(0.996264)"/>
       <use xlink:href="#CMR17-35" transform="translate(45.690477 0) scale(0.996264)"/>
       <use xlink:href="#CMR17-30" transform="translate(91.380954 0) scale(0.996264)"/>
       <use xlink:href="#CMR17-30" transform="translate(137.071431 0) scale(0.996264)"/>
       <use xlink:href="#CMR17-30" transform="translate(182.761908 0) scale(0.996264)"/>
       <use xlink:href="#CMR17-30" transform="translate(228.452386 0) scale(0.996264)"/>
      </g>
     </g>
    </g>
    <g id="xtick_8">
     <g id="line2d_8">
      <g>
       <use xlink:href="#md98b4d6815" x="675.88101" y="386.786449" style="stroke: #000000; stroke-width: 0.8"/>
      </g>
     </g>
     <g id="text_8">
      <!-- $\mathdefault{175000}$ -->
      <g transform="translate(658.322039 402.088629) scale(0.12 -0.12)">
       <use xlink:href="#CMR17-31" transform="scale(0.996264)"/>
       <use xlink:href="#CMR17-37" transform="translate(45.690477 0) scale(0.996264)"/>
       <use xlink:href="#CMR17-35" transform="translate(91.380954 0) scale(0.996264)"/>
       <use xlink:href="#CMR17-30" transform="translate(137.071431 0) scale(0.996264)"/>
       <use xlink:href="#CMR17-30" transform="translate(182.761908 0) scale(0.996264)"/>
       <use xlink:href="#CMR17-30" transform="translate(228.452386 0) scale(0.996264)"/>
      </g>
     </g>
    </g>
    <g id="text_9">
     <!-- Dimension Values -->
     <g transform="translate(333.452514 416.715404) scale(0.12 -0.12)">
      <defs>
       <path id="CMR17-44" d="M 333 4352 
L 333 4186 
C 774 4186 845 4186 845 3900 
L 845 452 
C 845 166 774 166 333 166 
L 333 0 
L 2368 0 
C 3398 0 4224 943 4224 2141 
C 4224 3346 3411 4352 2368 4352 
L 333 4352 
z
M 1523 166 
C 1267 166 1254 197 1254 414 
L 1254 3938 
C 1254 4155 1267 4186 1523 4186 
L 2240 4186 
C 2771 4186 3750 3874 3750 2141 
C 3750 1242 3488 879 3366 707 
C 3213 510 2848 166 2240 166 
L 1523 166 
z
" transform="scale(0.015625)"/>
       <path id="CMR17-69" d="M 992 3909 
C 992 4049 877 4170 730 4170 
C 589 4170 467 4056 467 3909 
C 467 3769 582 3648 730 3648 
C 870 3648 992 3763 992 3909 
z
M 243 2706 
L 243 2541 
C 602 2541 653 2502 653 2197 
L 653 427 
C 653 184 627 153 218 153 
L 218 -13 
C 371 0 646 0 806 0 
C 960 0 1222 0 1370 -13 
L 1370 153 
C 992 153 979 191 979 420 
L 979 2776 
L 243 2706 
z
" transform="scale(0.015625)"/>
       <path id="CMR17-6d" d="M 4326 1933 
C 4326 2252 4269 2790 3507 2790 
C 3072 2790 2771 2496 2656 2151 
L 2650 2151 
C 2573 2676 2195 2790 1837 2790 
C 1331 2790 1069 2400 973 2144 
L 966 2144 
L 966 2790 
L 211 2720 
L 211 2554 
C 589 2554 646 2515 646 2208 
L 646 428 
C 646 184 621 153 211 153 
L 211 -13 
C 365 0 646 0 813 0 
C 979 0 1267 0 1421 -13 
L 1421 153 
C 1011 153 986 178 986 428 
L 986 1658 
C 986 2247 1344 2688 1792 2688 
C 2266 2688 2317 2266 2317 1958 
L 2317 428 
C 2317 184 2291 153 1882 153 
L 1882 -13 
C 2035 0 2317 0 2483 0 
C 2650 0 2938 0 3091 -13 
L 3091 153 
C 2682 153 2656 178 2656 428 
L 2656 1658 
C 2656 2247 3014 2688 3462 2688 
C 3936 2688 3987 2266 3987 1958 
L 3987 428 
C 3987 184 3962 153 3552 153 
L 3552 -13 
C 3706 0 3987 0 4154 0 
C 4320 0 4608 0 4762 -13 
L 4762 153 
C 4352 153 4326 178 4326 428 
L 4326 1933 
z
" transform="scale(0.015625)"/>
       <path id="CMR17-65" d="M 2438 1472 
C 2464 1498 2464 1511 2464 1576 
C 2464 2238 2118 2816 1389 2816 
C 710 2816 173 2169 173 1383 
C 173 551 781 -64 1459 -64 
C 2176 -64 2458 607 2458 740 
C 2458 784 2419 784 2406 784 
C 2362 784 2355 771 2330 696 
C 2189 265 1837 51 1504 51 
C 1229 51 954 203 781 480 
C 582 803 582 1176 582 1472 
L 2438 1472 
z
M 589 1568 
C 634 2505 1126 2714 1382 2714 
C 1818 2714 2112 2297 2118 1568 
L 589 1568 
z
" transform="scale(0.015625)"/>
       <path id="CMR17-6e" d="M 2656 1933 
C 2656 2259 2592 2790 1837 2790 
C 1331 2790 1069 2400 973 2144 
L 966 2144 
L 966 2790 
L 211 2720 
L 211 2554 
C 589 2554 646 2515 646 2208 
L 646 428 
C 646 184 621 153 211 153 
L 211 -13 
C 365 0 646 0 813 0 
C 979 0 1267 0 1421 -13 
L 1421 153 
C 1011 153 986 178 986 428 
L 986 1658 
C 986 2247 1344 2688 1792 2688 
C 2266 2688 2317 2266 2317 1958 
L 2317 428 
C 2317 184 2291 153 1882 153 
L 1882 -13 
C 2035 0 2317 0 2483 0 
C 2650 0 2938 0 3091 -13 
L 3091 153 
C 2682 153 2656 178 2656 428 
L 2656 1933 
z
" transform="scale(0.015625)"/>
       <path id="CMR17-73" d="M 1978 2697 
C 1978 2813 1971 2819 1933 2819 
C 1907 2819 1901 2813 1824 2717 
C 1805 2691 1747 2626 1728 2601 
C 1523 2819 1235 2819 1126 2819 
C 416 2819 160 2447 160 2076 
C 160 1498 813 1365 998 1325 
C 1402 1243 1542 1217 1677 1101 
C 1760 1025 1901 884 1901 654 
C 1901 384 1747 38 1158 38 
C 602 38 403 460 288 1021 
C 269 1110 269 1117 218 1117 
C 166 1117 160 1110 160 983 
L 160 63 
C 160 -51 166 -58 205 -58 
C 237 -58 243 -51 275 0 
C 314 57 410 211 448 276 
C 576 103 800 -64 1158 -64 
C 1792 -64 2131 283 2131 784 
C 2131 1112 1958 1285 1875 1362 
C 1683 1561 1459 1606 1190 1657 
C 838 1735 390 1825 390 2217 
C 390 2383 480 2737 1126 2737 
C 1811 2737 1850 2094 1862 1888 
C 1869 1856 1901 1849 1920 1849 
C 1978 1849 1978 1869 1978 1978 
L 1978 2697 
z
" transform="scale(0.015625)"/>
       <path id="CMR17-6f" d="M 2758 1356 
C 2758 2176 2163 2816 1466 2816 
C 768 2816 173 2176 173 1356 
C 173 551 768 -64 1466 -64 
C 2163 -64 2758 551 2758 1356 
z
M 1466 51 
C 1165 51 909 230 762 480 
C 602 767 582 1126 582 1408 
C 582 1677 595 2010 762 2298 
C 890 2509 1139 2714 1466 2714 
C 1754 2714 1997 2554 2150 2330 
C 2349 2029 2349 1607 2349 1408 
C 2349 1158 2336 775 2163 467 
C 1984 173 1709 51 1466 51 
z
" transform="scale(0.015625)"/>
       <path id="CMR17-56" d="M 3776 3745 
C 3834 3886 3936 4160 4365 4160 
L 4365 4332 
C 4218 4319 4051 4319 3891 4319 
C 3738 4319 3475 4319 3328 4332 
L 3328 4160 
C 3648 4160 3661 3936 3661 3898 
C 3661 3827 3642 3783 3622 3732 
L 2362 446 
L 1043 3886 
C 1024 3931 1011 3963 1011 3994 
C 1011 4160 1267 4160 1402 4160 
L 1402 4319 
C 1197 4319 896 4319 685 4319 
C 518 4319 218 4319 64 4332 
L 64 4160 
C 435 4160 506 4135 582 3931 
L 2106 -26 
C 2138 -115 2144 -128 2214 -128 
C 2285 -128 2291 -115 2323 -26 
L 3776 3745 
z
" transform="scale(0.015625)"/>
       <path id="CMR17-61" d="M 2304 1653 
C 2304 2072 2304 2294 2035 2543 
C 1798 2752 1523 2816 1306 2816 
C 800 2816 435 2407 435 1971 
C 435 1728 627 1728 666 1728 
C 749 1728 896 1778 896 1954 
C 896 2112 774 2181 666 2181 
C 640 2181 608 2174 589 2168 
C 723 2592 1069 2714 1293 2714 
C 1613 2714 1965 2429 1965 1885 
L 1965 1600 
C 1587 1600 1133 1549 774 1357 
C 371 1133 256 813 256 570 
C 256 77 832 -64 1171 -64 
C 1523 -64 1850 139 1990 511 
C 2003 233 2182 -18 2464 -18 
C 2598 -18 2938 70 2938 567 
L 2938 920 
L 2822 920 
L 2822 562 
C 2822 178 2650 128 2566 128 
C 2304 128 2304 458 2304 738 
L 2304 1653 
z
M 1965 870 
C 1965 317 1568 38 1216 38 
C 896 38 646 275 646 570 
C 646 761 730 1100 1101 1305 
C 1408 1478 1760 1504 1965 1504 
L 1965 870 
z
" transform="scale(0.015625)"/>
       <path id="CMR17-6c" d="M 979 4396 
L 218 4326 
L 218 4160 
C 595 4160 653 4122 653 3817 
L 653 426 
C 653 184 627 153 218 153 
L 218 -13 
C 371 0 653 0 813 0 
C 979 0 1261 0 1414 -13 
L 1414 153 
C 1005 153 979 178 979 426 
L 979 4396 
z
" transform="scale(0.015625)"/>
       <path id="CMR17-75" d="M 1882 2693 
L 1882 2528 
C 2259 2528 2317 2489 2317 2186 
L 2317 1032 
C 2317 500 2029 38 1555 38 
C 1030 38 986 348 986 678 
L 986 2763 
L 211 2693 
L 211 2528 
C 467 2528 640 2528 646 2274 
L 646 1058 
C 646 633 646 361 813 183 
C 896 101 1056 -64 1517 -64 
C 2061 -64 2272 377 2323 506 
L 2330 506 
L 2330 -63 
L 3091 -63 
L 3091 128 
C 2714 128 2656 166 2656 473 
L 2656 2763 
L 1882 2693 
z
" transform="scale(0.015625)"/>
      </defs>
      <use xlink:href="#CMR17-44" transform="scale(0.996264)"/>
      <use xlink:href="#CMR17-69" transform="translate(70.393556 0) scale(0.996264)"/>
      <use xlink:href="#CMR17-6d" transform="translate(95.264614 0) scale(0.996264)"/>
      <use xlink:href="#CMR17-65" transform="translate(172.184204 0) scale(0.996264)"/>
      <use xlink:href="#CMR17-6e" transform="translate(212.669865 0) scale(0.996264)"/>
      <use xlink:href="#CMR17-73" transform="translate(263.565234 0) scale(0.996264)"/>
      <use xlink:href="#CMR17-69" transform="translate(299.366572 0) scale(0.996264)"/>
      <use xlink:href="#CMR17-6f" transform="translate(324.237631 0) scale(0.996264)"/>
      <use xlink:href="#CMR17-6e" transform="translate(369.928108 0) scale(0.996264)"/>
      <use xlink:href="#CMR17-56" transform="translate(450.899444 0) scale(0.996264)"/>
      <use xlink:href="#CMR17-61" transform="translate(512.164618 0) scale(0.996264)"/>
      <use xlink:href="#CMR17-6c" transform="translate(557.855095 0) scale(0.996264)"/>
      <use xlink:href="#CMR17-75" transform="translate(582.726154 0) scale(0.996264)"/>
      <use xlink:href="#CMR17-65" transform="translate(633.621524 0) scale(0.996264)"/>
      <use xlink:href="#CMR17-73" transform="translate(674.107184 0) scale(0.996264)"/>
     </g>
    </g>
   </g>
   <g id="matplotlib.axis_2">
    <g id="ytick_1">
     <g id="line2d_9">
      <defs>
       <path id="m526add9845" d="M 0 0 
L -3.5 0 
" style="stroke: #000000; stroke-width: 0.8"/>
      </defs>
      <g>
       <use xlink:href="#m526add9845" x="50.87281" y="370.519911" style="stroke: #000000; stroke-width: 0.8"/>
      </g>
     </g>
     <g id="text_10">
      <!-- $\mathdefault{0.0}$ -->
      <g transform="translate(28.915168 374.671001) scale(0.12 -0.12)">
       <defs>
        <path id="CMMI12-3a" d="M 1178 307 
C 1178 492 1024 619 870 619 
C 685 619 557 466 557 313 
C 557 128 710 0 864 0 
C 1050 0 1178 153 1178 307 
z
" transform="scale(0.015625)"/>
       </defs>
       <use xlink:href="#CMR17-30" transform="scale(0.996264)"/>
       <use xlink:href="#CMMI12-3a" transform="translate(45.690477 0) scale(0.996264)"/>
       <use xlink:href="#CMR17-30" transform="translate(72.787654 0) scale(0.996264)"/>
      </g>
     </g>
    </g>
    <g id="ytick_2">
     <g id="line2d_10">
      <g>
       <use xlink:href="#m526add9845" x="50.87281" y="325.792601" style="stroke: #000000; stroke-width: 0.8"/>
      </g>
     </g>
     <g id="text_11">
      <!-- $\mathdefault{0.5}$ -->
      <g transform="translate(28.915168 329.943691) scale(0.12 -0.12)">
       <use xlink:href="#CMR17-30" transform="scale(0.996264)"/>
       <use xlink:href="#CMMI12-3a" transform="translate(45.690477 0) scale(0.996264)"/>
       <use xlink:href="#CMR17-35" transform="translate(72.787654 0) scale(0.996264)"/>
      </g>
     </g>
    </g>
    <g id="ytick_3">
     <g id="line2d_11">
      <g>
       <use xlink:href="#m526add9845" x="50.87281" y="281.06529" style="stroke: #000000; stroke-width: 0.8"/>
      </g>
     </g>
     <g id="text_12">
      <!-- $\mathdefault{1.0}$ -->
      <g transform="translate(28.915168 285.21638) scale(0.12 -0.12)">
       <use xlink:href="#CMR17-31" transform="scale(0.996264)"/>
       <use xlink:href="#CMMI12-3a" transform="translate(45.690477 0) scale(0.996264)"/>
       <use xlink:href="#CMR17-30" transform="translate(72.787654 0) scale(0.996264)"/>
      </g>
     </g>
    </g>
    <g id="ytick_4">
     <g id="line2d_12">
      <g>
       <use xlink:href="#m526add9845" x="50.87281" y="236.337979" style="stroke: #000000; stroke-width: 0.8"/>
      </g>
     </g>
     <g id="text_13">
      <!-- $\mathdefault{1.5}$ -->
      <g transform="translate(28.915168 240.489069) scale(0.12 -0.12)">
       <use xlink:href="#CMR17-31" transform="scale(0.996264)"/>
       <use xlink:href="#CMMI12-3a" transform="translate(45.690477 0) scale(0.996264)"/>
       <use xlink:href="#CMR17-35" transform="translate(72.787654 0) scale(0.996264)"/>
      </g>
     </g>
    </g>
    <g id="ytick_5">
     <g id="line2d_13">
      <g>
       <use xlink:href="#m526add9845" x="50.87281" y="191.610668" style="stroke: #000000; stroke-width: 0.8"/>
      </g>
     </g>
     <g id="text_14">
      <!-- $\mathdefault{2.0}$ -->
      <g transform="translate(28.915168 195.761758) scale(0.12 -0.12)">
       <use xlink:href="#CMR17-32" transform="scale(0.996264)"/>
       <use xlink:href="#CMMI12-3a" transform="translate(45.690477 0) scale(0.996264)"/>
       <use xlink:href="#CMR17-30" transform="translate(72.787654 0) scale(0.996264)"/>
      </g>
     </g>
    </g>
    <g id="ytick_6">
     <g id="line2d_14">
      <g>
       <use xlink:href="#m526add9845" x="50.87281" y="146.883357" style="stroke: #000000; stroke-width: 0.8"/>
      </g>
     </g>
     <g id="text_15">
      <!-- $\mathdefault{2.5}$ -->
      <g transform="translate(28.915168 151.034447) scale(0.12 -0.12)">
       <use xlink:href="#CMR17-32" transform="scale(0.996264)"/>
       <use xlink:href="#CMMI12-3a" transform="translate(45.690477 0) scale(0.996264)"/>
       <use xlink:href="#CMR17-35" transform="translate(72.787654 0) scale(0.996264)"/>
      </g>
     </g>
    </g>
    <g id="ytick_7">
     <g id="line2d_15">
      <g>
       <use xlink:href="#m526add9845" x="50.87281" y="102.156047" style="stroke: #000000; stroke-width: 0.8"/>
      </g>
     </g>
     <g id="text_16">
      <!-- $\mathdefault{3.0}$ -->
      <g transform="translate(28.915168 106.307136) scale(0.12 -0.12)">
       <defs>
        <path id="CMR17-33" d="M 1414 2157 
C 1984 2157 2234 1662 2234 1090 
C 2234 320 1824 25 1453 25 
C 1114 25 563 194 390 693 
C 422 680 454 680 486 680 
C 640 680 755 782 755 948 
C 755 1133 614 1216 486 1216 
C 378 1216 211 1165 211 926 
C 211 335 787 -128 1466 -128 
C 2176 -128 2720 430 2720 1085 
C 2720 1707 2208 2157 1600 2227 
C 2086 2328 2554 2756 2554 3329 
C 2554 3820 2048 4179 1472 4179 
C 890 4179 378 3829 378 3329 
C 378 3110 544 3072 627 3072 
C 762 3072 877 3155 877 3321 
C 877 3486 762 3569 627 3569 
C 602 3569 570 3569 544 3557 
C 730 3959 1235 4032 1459 4032 
C 1683 4032 2106 3925 2106 3320 
C 2106 3143 2080 2828 1862 2550 
C 1670 2304 1453 2304 1242 2284 
C 1210 2284 1062 2269 1037 2269 
C 992 2263 966 2257 966 2208 
C 966 2163 973 2157 1101 2157 
L 1414 2157 
z
" transform="scale(0.015625)"/>
       </defs>
       <use xlink:href="#CMR17-33" transform="scale(0.996264)"/>
       <use xlink:href="#CMMI12-3a" transform="translate(45.690477 0) scale(0.996264)"/>
       <use xlink:href="#CMR17-30" transform="translate(72.787654 0) scale(0.996264)"/>
      </g>
     </g>
    </g>
    <g id="ytick_8">
     <g id="line2d_16">
      <g>
       <use xlink:href="#m526add9845" x="50.87281" y="57.428736" style="stroke: #000000; stroke-width: 0.8"/>
      </g>
     </g>
     <g id="text_17">
      <!-- $\mathdefault{3.5}$ -->
      <g transform="translate(28.915168 61.579826) scale(0.12 -0.12)">
       <use xlink:href="#CMR17-33" transform="scale(0.996264)"/>
       <use xlink:href="#CMMI12-3a" transform="translate(45.690477 0) scale(0.996264)"/>
       <use xlink:href="#CMR17-35" transform="translate(72.787654 0) scale(0.996264)"/>
      </g>
     </g>
    </g>
    <g id="text_18">
     <!-- Density / Frequency -->
     <g transform="translate(21.926376 260.236732) rotate(-90) scale(0.12 -0.12)">
      <defs>
       <path id="CMR17-74" d="M 966 2560 
L 1862 2560 
L 1862 2725 
L 966 2725 
L 966 3904 
L 851 3904 
C 838 3245 614 2668 70 2668 
L 70 2560 
L 627 2560 
L 627 771 
C 627 650 627 -64 1370 -64 
C 1747 -64 1965 306 1965 777 
L 1965 1140 
L 1850 1140 
L 1850 783 
C 1850 344 1677 51 1408 51 
C 1222 51 966 178 966 758 
L 966 2560 
z
" transform="scale(0.015625)"/>
       <path id="CMR17-79" d="M 2496 2197 
C 2656 2586 2944 2586 3034 2586 
L 3034 2752 
C 2912 2752 2752 2752 2630 2752 
C 2496 2752 2285 2752 2157 2758 
L 2157 2592 
C 2400 2573 2406 2394 2406 2343 
C 2406 2280 2394 2248 2362 2171 
L 1664 449 
L 902 2306 
C 870 2382 870 2426 870 2433 
C 870 2573 1018 2586 1171 2586 
L 1171 2758 
C 1018 2752 742 2752 582 2752 
C 410 2752 205 2752 64 2758 
L 64 2586 
C 410 2586 448 2554 531 2350 
L 1485 15 
C 1197 -738 1030 -1178 627 -1178 
C 557 -1178 397 -1159 282 -1044 
C 429 -1031 493 -942 493 -833 
C 493 -725 416 -629 288 -629 
C 147 -629 77 -725 77 -840 
C 77 -1095 339 -1280 627 -1280 
C 998 -1280 1229 -922 1357 -604 
L 2496 2197 
z
" transform="scale(0.015625)"/>
       <path id="CMR17-2f" d="M 2605 4545 
C 2637 4627 2637 4640 2637 4653 
C 2637 4729 2579 4768 2528 4768 
C 2451 4768 2426 4717 2400 4640 
L 326 -1377 
C 294 -1460 294 -1473 294 -1486 
C 294 -1562 352 -1600 403 -1600 
C 480 -1600 506 -1549 531 -1473 
L 2605 4545 
z
" transform="scale(0.015625)"/>
       <path id="CMR17-46" d="M 3482 4325 
L 326 4325 
L 326 4160 
C 768 4160 838 4160 838 3874 
L 838 446 
C 838 160 768 160 326 160 
L 326 0 
C 512 0 870 0 1069 0 
C 1331 0 1638 0 1901 0 
L 1901 160 
L 1760 160 
C 1274 160 1261 223 1261 452 
L 1261 2075 
L 1837 2075 
C 2432 2075 2490 1865 2490 1332 
L 2605 1332 
L 2605 2987 
L 2490 2987 
C 2490 2450 2432 2240 1837 2240 
L 1261 2240 
L 1261 3911 
C 1261 4128 1274 4160 1530 4160 
L 2355 4160 
C 3322 4160 3430 3765 3520 2916 
L 3635 2916 
L 3482 4325 
z
" transform="scale(0.015625)"/>
       <path id="CMR17-72" d="M 960 1497 
C 960 2112 1222 2688 1702 2688 
C 1747 2688 1792 2682 1837 2662 
C 1837 2662 1696 2617 1696 2452 
C 1696 2298 1818 2234 1914 2234 
C 1990 2234 2131 2279 2131 2458 
C 2131 2663 1926 2790 1709 2790 
C 1222 2790 1011 2317 947 2093 
L 941 2093 
L 941 2790 
L 198 2720 
L 198 2554 
C 576 2554 634 2515 634 2208 
L 634 428 
C 634 184 608 153 198 153 
L 198 -13 
C 352 0 646 0 813 0 
C 998 0 1325 0 1498 -13 
L 1498 153 
C 1037 153 960 153 960 440 
L 960 1497 
z
" transform="scale(0.015625)"/>
       <path id="CMR17-71" d="M 2630 2802 
L 2528 2802 
L 2336 2172 
C 2189 2509 1920 2802 1491 2802 
C 838 2802 211 2223 211 1383 
C 211 548 800 -38 1440 -38 
C 1933 -38 2208 338 2291 478 
L 2291 -789 
C 2291 -1031 2266 -1063 1856 -1063 
L 1856 -1228 
C 2010 -1216 2291 -1216 2458 -1216 
C 2624 -1216 2912 -1216 3066 -1228 
L 3066 -1063 
C 2656 -1063 2630 -1037 2630 -789 
L 2630 2802 
z
M 2304 886 
C 2304 612 2074 357 2054 338 
C 1856 115 1626 64 1472 64 
C 992 64 621 669 621 1375 
C 621 2121 1043 2688 1536 2688 
C 2048 2688 2304 2108 2304 1777 
L 2304 886 
z
" transform="scale(0.015625)"/>
       <path id="CMR17-63" d="M 2234 2240 
C 2112 2240 1933 2240 1933 2017 
C 1933 1838 2080 1787 2163 1787 
C 2208 1787 2394 1807 2394 2024 
C 2394 2467 1958 2803 1466 2803 
C 787 2803 211 2178 211 1363 
C 211 516 813 -64 1466 -64 
C 2259 -64 2458 677 2458 748 
C 2458 774 2451 793 2406 793 
C 2362 793 2355 787 2330 703 
C 2163 180 1798 51 1523 51 
C 1114 51 621 427 621 1369 
C 621 2338 1094 2688 1472 2688 
C 1722 2688 2093 2573 2234 2240 
z
" transform="scale(0.015625)"/>
      </defs>
      <use xlink:href="#CMR17-44" transform="scale(0.996264)"/>
      <use xlink:href="#CMR17-65" transform="translate(70.393556 0) scale(0.996264)"/>
      <use xlink:href="#CMR17-6e" transform="translate(110.879216 0) scale(0.996264)"/>
      <use xlink:href="#CMR17-73" transform="translate(161.774586 0) scale(0.996264)"/>
      <use xlink:href="#CMR17-69" transform="translate(197.575924 0) scale(0.996264)"/>
      <use xlink:href="#CMR17-74" transform="translate(222.446982 0) scale(0.996264)"/>
      <use xlink:href="#CMR17-79" transform="translate(255.125296 0) scale(0.996264)"/>
      <use xlink:href="#CMR17-2f" transform="translate(333.494178 0) scale(0.996264)"/>
      <use xlink:href="#CMR17-46" transform="translate(409.260622 0) scale(0.996264)"/>
      <use xlink:href="#CMR17-72" transform="translate(461.437213 0) scale(0.996264)"/>
      <use xlink:href="#CMR17-65" transform="translate(496.717981 0) scale(0.996264)"/>
      <use xlink:href="#CMR17-71" transform="translate(537.203641 0) scale(0.996264)"/>
      <use xlink:href="#CMR17-75" transform="translate(585.496557 0) scale(0.996264)"/>
      <use xlink:href="#CMR17-65" transform="translate(636.391927 0) scale(0.996264)"/>
      <use xlink:href="#CMR17-6e" transform="translate(676.877587 0) scale(0.996264)"/>
      <use xlink:href="#CMR17-63" transform="translate(727.772957 0) scale(0.996264)"/>
      <use xlink:href="#CMR17-79" transform="translate(768.258618 0) scale(0.996264)"/>
     </g>
    </g>
    <g id="text_19">
     <!-- $\times\mathdefault{10^{5}}\mathdefault{}$ -->
     <g transform="translate(50.87281 25.922625) scale(0.12 -0.12)">
      <defs>
       <path id="CMSY10-2" d="M 2490 1785 
L 1210 3059 
C 1133 3136 1120 3148 1069 3148 
C 1005 3148 941 3091 941 3020 
C 941 2976 954 2963 1024 2892 
L 2304 1606 
L 1024 320 
C 954 249 941 236 941 192 
C 941 121 1005 64 1069 64 
C 1120 64 1133 76 1210 153 
L 2483 1427 
L 3808 102 
C 3821 96 3866 64 3904 64 
C 3981 64 4032 121 4032 192 
C 4032 204 4032 230 4013 262 
C 4006 275 2989 1280 2669 1606 
L 3840 2777 
C 3872 2816 3968 2899 4000 2937 
C 4006 2950 4032 2976 4032 3020 
C 4032 3091 3981 3148 3904 3148 
C 3853 3148 3827 3123 3757 3052 
L 2490 1785 
z
" transform="scale(0.015625)"/>
       <path id="CMSY10-0" d="M 4218 1472 
C 4326 1472 4442 1472 4442 1600 
C 4442 1728 4326 1728 4218 1728 
L 755 1728 
C 646 1728 531 1728 531 1600 
C 531 1472 646 1472 755 1472 
L 4218 1472 
z
" transform="scale(0.015625)"/>
      </defs>
      <use xlink:href="#CMSY10-2" transform="scale(0.996264)"/>
      <use xlink:href="#CMR17-31" transform="translate(77.487468 0) scale(0.996264)"/>
      <use xlink:href="#CMR17-30" transform="translate(123.177945 0) scale(0.996264)"/>
      <use xlink:href="#CMSY10-0" transform="translate(168.868422 36.153639) scale(0.697382)"/>
      <use xlink:href="#CMR17-35" transform="translate(223.109415 36.153639) scale(0.697382)"/>
     </g>
    </g>
   </g>
   <g id="line2d_17">
    <path d="M 80.698591 75.327533 
L 82.535154 67.467157 
L 84.235675 61.174356 
L 85.657311 56.679067 
L 87.065343 52.938746 
L 88.044843 50.763929 
L 89.269218 48.545336 
L 90.425572 46.963957 
L 91.309844 46.092454 
L 92.194115 45.513208 
L 92.942344 45.250312 
L 93.554531 45.189162 
L 94.411594 45.334323 
L 95.268657 45.745658 
L 95.850235 46.174331 
L 96.860345 47.20136 
L 98.329595 49.31912 
L 99.268283 51.046534 
L 100.53347 53.817579 
L 101.744242 56.924352 
L 103.335929 61.644597 
L 104.206596 64.513348 
L 106.563519 73.202519 
L 108.553128 81.465585 
L 111.552848 95.223594 
L 114.654598 110.663825 
L 119.266412 134.879035 
L 126.680684 173.834834 
L 127.714601 179.056033 
L 133.754853 207.732531 
L 137.999353 225.661752 
L 140.121604 233.876463 
L 142.407104 242.159596 
L 145.345605 251.966837 
L 146.355715 255.125431 
L 149.263606 263.637665 
L 153.426482 274.422069 
L 154.161107 276.166547 
L 157.834233 284.240444 
L 163.466359 294.765493 
L 164.445859 296.396199 
L 167.996547 301.877342 
L 171.608454 306.83634 
L 172.220642 307.621777 
L 177.669112 313.999006 
L 179.736946 316.161747 
L 184.158301 320.382739 
L 186.545833 322.458963 
L 190.892365 325.921713 
L 196.402053 329.803124 
L 204.115618 334.45049 
L 207.421431 336.20378 
L 217.828621 340.941746 
L 223.950497 343.252388 
L 227.25631 344.376503 
L 239.867375 348.062313 
L 255.294504 351.913501 
L 265.334381 354.318666 
L 274.639633 356.407895 
L 301.086138 360.346889 
L 312.105516 361.201529 
L 347.394732 363.72125 
L 378.956405 366.590638 
L 449.97017 366.397495 
L 511.515433 368.341855 
L 677.214219 368.507011 
L 677.214219 368.507011 
" clip-path="url(#p7e3cb552fc)" style="fill: none; stroke: #0000ff; stroke-width: 1.5; stroke-linecap: square"/>
   </g>
   <g id="patch_3">
    <path d="M 50.87281 386.786449 
L 50.87281 28.922625 
" style="fill: none; stroke: #000000; stroke-width: 0.8; stroke-linejoin: miter; stroke-linecap: square"/>
   </g>
   <g id="patch_4">
    <path d="M 707.04 386.786449 
L 707.04 28.922625 
" style="fill: none; stroke: #000000; stroke-width: 0.8; stroke-linejoin: miter; stroke-linecap: square"/>
   </g>
   <g id="patch_5">
    <path d="M 50.87281 386.786449 
L 707.04 386.786449 
" style="fill: none; stroke: #000000; stroke-width: 0.8; stroke-linejoin: miter; stroke-linecap: square"/>
   </g>
   <g id="patch_6">
    <path d="M 50.87281 28.922625 
L 707.04 28.922625 
" style="fill: none; stroke: #000000; stroke-width: 0.8; stroke-linejoin: miter; stroke-linecap: square"/>
   </g>
   <g id="text_20">
    <!-- Dimension Distribution with KDE -->
    <g transform="translate(272.946912 22.922625) scale(0.144 -0.144)">
     <defs>
      <path id="CMR17-62" d="M 960 4396 
L 198 4326 
L 198 4160 
C 576 4160 634 4122 634 3817 
L 634 -13 
L 749 -13 
L 934 441 
C 1120 141 1395 -64 1766 -64 
C 2406 -64 3053 500 3053 1370 
C 3053 2188 2477 2790 1830 2790 
C 1434 2790 1152 2579 960 2330 
L 960 4396 
z
M 973 2004 
C 973 2118 973 2138 1062 2272 
C 1312 2657 1670 2688 1792 2688 
C 1984 2688 2643 2585 2643 1376 
C 2643 108 1888 38 1734 38 
C 1536 38 1248 114 1043 486 
C 973 608 973 621 973 735 
L 973 2004 
z
" transform="scale(0.015625)"/>
      <path id="CMR17-77" d="M 3725 2183 
C 3853 2560 4109 2560 4205 2560 
L 4205 2732 
C 4077 2732 3949 2732 3821 2732 
C 3699 2732 3424 2732 3315 2738 
L 3315 2560 
C 3514 2560 3622 2445 3622 2286 
C 3622 2241 3610 2184 3597 2140 
L 2995 407 
L 2342 2275 
C 2330 2319 2310 2370 2310 2395 
C 2310 2560 2528 2560 2630 2560 
L 2630 2738 
C 2483 2732 2214 2732 2061 2732 
C 1901 2732 1734 2732 1587 2738 
L 1587 2560 
C 1939 2560 1939 2547 2074 2149 
L 1485 451 
L 851 2281 
C 819 2363 819 2376 819 2395 
C 819 2560 1037 2560 1139 2560 
L 1139 2738 
C 986 2732 717 2732 557 2732 
C 416 2732 198 2732 64 2738 
L 64 2560 
C 346 2560 416 2541 486 2331 
L 1274 49 
C 1299 -33 1318 -52 1370 -52 
C 1414 -52 1440 -39 1472 56 
L 2131 1980 
L 2797 56 
C 2829 -39 2854 -52 2899 -52 
C 2950 -52 2970 -33 2995 50 
L 3725 2183 
z
" transform="scale(0.015625)"/>
      <path id="CMR17-68" d="M 2656 1933 
C 2656 2259 2592 2790 1837 2790 
C 1312 2790 1056 2368 979 2157 
L 973 2157 
L 973 4396 
L 211 4326 
L 211 4160 
C 589 4160 646 4122 646 3817 
L 646 426 
C 646 184 621 153 211 153 
L 211 -13 
C 365 0 646 0 813 0 
C 979 0 1267 0 1421 -13 
L 1421 153 
C 1011 153 986 178 986 428 
L 986 1658 
C 986 2247 1344 2688 1792 2688 
C 2266 2688 2317 2266 2317 1958 
L 2317 428 
C 2317 184 2291 153 1882 153 
L 1882 -13 
C 2035 0 2317 0 2483 0 
C 2650 0 2938 0 3091 -13 
L 3091 153 
C 2682 153 2656 178 2656 428 
L 2656 1933 
z
" transform="scale(0.015625)"/>
      <path id="CMR17-4b" d="M 2362 2675 
L 3469 3782 
C 3699 4006 3942 4186 4301 4186 
L 4301 4352 
C 4173 4352 4013 4352 3885 4352 
C 3712 4352 3411 4352 3245 4358 
L 3245 4192 
C 3411 4180 3437 4065 3437 4019 
C 3437 3975 3411 3905 3386 3867 
L 1261 1738 
L 1261 3900 
C 1261 4186 1331 4186 1773 4186 
L 1773 4352 
C 1587 4352 1248 4352 1050 4352 
C 851 4352 512 4352 326 4352 
L 326 4186 
C 768 4186 838 4186 838 3899 
L 838 446 
C 838 160 768 160 326 160 
L 326 0 
C 512 0 851 0 1050 0 
C 1248 0 1587 0 1773 0 
L 1773 160 
C 1331 160 1261 160 1261 447 
L 1261 1579 
L 2080 2390 
L 3290 537 
C 3328 473 3373 390 3373 326 
C 3373 160 3194 160 3110 160 
L 3110 0 
C 3315 0 3610 0 3821 0 
C 3974 0 4237 0 4384 -6 
L 4384 160 
C 4077 160 3981 198 3789 493 
L 2362 2675 
z
" transform="scale(0.015625)"/>
      <path id="CMR17-45" d="M 3885 1615 
L 3770 1615 
C 3629 676 3546 166 2419 166 
L 1530 166 
C 1274 166 1261 197 1261 414 
L 1261 2176 
L 1862 2176 
C 2464 2176 2522 1960 2522 1430 
L 2637 1430 
L 2637 3081 
L 2522 3081 
C 2522 2557 2464 2342 1862 2342 
L 1261 2342 
L 1261 3913 
C 1261 4128 1274 4160 1530 4160 
L 2406 4160 
C 3398 4160 3514 3769 3603 2929 
L 3718 2929 
L 3565 4325 
L 326 4325 
L 326 4160 
C 768 4160 838 4160 838 3874 
L 838 451 
C 838 166 768 166 326 166 
L 326 0 
L 3654 0 
L 3885 1615 
z
" transform="scale(0.015625)"/>
     </defs>
     <use xlink:href="#CMR17-44" transform="scale(0.996264)"/>
     <use xlink:href="#CMR17-69" transform="translate(70.393556 0) scale(0.996264)"/>
     <use xlink:href="#CMR17-6d" transform="translate(95.264614 0) scale(0.996264)"/>
     <use xlink:href="#CMR17-65" transform="translate(172.184204 0) scale(0.996264)"/>
     <use xlink:href="#CMR17-6e" transform="translate(212.669865 0) scale(0.996264)"/>
     <use xlink:href="#CMR17-73" transform="translate(263.565234 0) scale(0.996264)"/>
     <use xlink:href="#CMR17-69" transform="translate(299.366572 0) scale(0.996264)"/>
     <use xlink:href="#CMR17-6f" transform="translate(324.237631 0) scale(0.996264)"/>
     <use xlink:href="#CMR17-6e" transform="translate(369.928108 0) scale(0.996264)"/>
     <use xlink:href="#CMR17-44" transform="translate(450.899444 0) scale(0.996264)"/>
     <use xlink:href="#CMR17-69" transform="translate(521.293 0) scale(0.996264)"/>
     <use xlink:href="#CMR17-73" transform="translate(546.164058 0) scale(0.996264)"/>
     <use xlink:href="#CMR17-74" transform="translate(581.965396 0) scale(0.996264)"/>
     <use xlink:href="#CMR17-72" transform="translate(617.246164 0) scale(0.996264)"/>
     <use xlink:href="#CMR17-69" transform="translate(652.526931 0) scale(0.996264)"/>
     <use xlink:href="#CMR17-62" transform="translate(677.39799 0) scale(0.996264)"/>
     <use xlink:href="#CMR17-75" transform="translate(728.29336 0) scale(0.996264)"/>
     <use xlink:href="#CMR17-74" transform="translate(779.18873 0) scale(0.996264)"/>
     <use xlink:href="#CMR17-69" transform="translate(814.469497 0) scale(0.996264)"/>
     <use xlink:href="#CMR17-6f" transform="translate(839.340556 0) scale(0.996264)"/>
     <use xlink:href="#CMR17-6e" transform="translate(885.031033 0) scale(0.996264)"/>
     <use xlink:href="#CMR17-77" transform="translate(966.002369 0) scale(0.996264)"/>
     <use xlink:href="#CMR17-69" transform="translate(1032.51225 0) scale(0.996264)"/>
     <use xlink:href="#CMR17-74" transform="translate(1057.383308 0) scale(0.996264)"/>
     <use xlink:href="#CMR17-68" transform="translate(1092.664076 0) scale(0.996264)"/>
     <use xlink:href="#CMR17-4b" transform="translate(1173.635412 0) scale(0.996264)"/>
     <use xlink:href="#CMR17-44" transform="translate(1245.310189 0) scale(0.996264)"/>
     <use xlink:href="#CMR17-45" transform="translate(1315.703745 0) scale(0.996264)"/>
    </g>
   </g>
   <g id="legend_1">
    <g id="patch_7">
     <path d="M 581.588532 73.202389 
L 698.64 73.202389 
Q 701.04 73.202389 701.04 70.802389 
L 701.04 37.322625 
Q 701.04 34.922625 698.64 34.922625 
L 581.588532 34.922625 
Q 579.188532 34.922625 579.188532 37.322625 
L 579.188532 70.802389 
Q 579.188532 73.202389 581.588532 73.202389 
z
" style="fill: #ffffff; opacity: 0.8; stroke: #cccccc; stroke-linejoin: miter"/>
    </g>
    <g id="line2d_18">
     <path d="M 583.988532 44.489001 
L 595.988532 44.489001 
L 607.988532 44.489001 
" style="fill: none; stroke: #0000ff; stroke-width: 1.5; stroke-linecap: square"/>
    </g>
    <g id="text_21">
     <!-- KDE (Trend) -->
     <g transform="translate(617.588532 48.689001) scale(0.12 -0.12)">
      <defs>
       <path id="CMR17-28" d="M 1958 -1561 
C 1958 -1555 1958 -1542 1939 -1523 
C 1645 -1224 858 -407 858 1581 
C 858 3569 1632 4379 1946 4697 
C 1946 4704 1958 4717 1958 4736 
C 1958 4755 1939 4768 1914 4768 
C 1843 4768 1299 4296 986 3594 
C 666 2887 576 2199 576 1588 
C 576 1128 621 351 1005 -471 
C 1312 -1135 1837 -1600 1914 -1600 
C 1946 -1600 1958 -1587 1958 -1561 
z
" transform="scale(0.015625)"/>
       <path id="CMR17-54" d="M 3981 4326 
L 288 4326 
L 179 2918 
L 294 2918 
C 378 3976 467 4160 1453 4160 
C 1568 4160 1754 4160 1805 4154 
C 1926 4135 1926 4058 1926 3912 
L 1926 459 
C 1926 230 1907 160 1376 160 
L 1197 160 
L 1197 0 
C 1504 0 1824 0 2138 0 
C 2451 0 2771 0 3078 0 
L 3078 160 
L 2899 160 
C 2368 160 2349 230 2349 459 
L 2349 3912 
C 2349 4052 2349 4129 2464 4154 
C 2515 4160 2701 4160 2816 4160 
C 3795 4160 3891 3976 3974 2918 
L 4090 2918 
L 3981 4326 
z
" transform="scale(0.015625)"/>
       <path id="CMR17-64" d="M 1869 4326 
L 1869 4160 
C 2246 4160 2304 4122 2304 3820 
L 2304 2345 
C 2278 2377 2016 2790 1498 2790 
C 845 2790 211 2208 211 1364 
C 211 525 806 -64 1434 -64 
C 1978 -64 2259 337 2291 380 
L 2291 -63 
L 3066 -63 
L 3066 128 
C 2688 128 2630 166 2630 473 
L 2630 4396 
L 1869 4326 
z
M 2291 755 
C 2291 563 2176 390 2029 262 
C 1811 70 1594 38 1472 38 
C 1286 38 621 134 621 1356 
C 621 2612 1363 2688 1530 2688 
C 1824 2688 2061 2522 2208 2291 
C 2291 2157 2291 2138 2291 2023 
L 2291 755 
z
" transform="scale(0.015625)"/>
       <path id="CMR17-29" d="M 1683 1581 
C 1683 2040 1638 2817 1254 3639 
C 947 4303 422 4768 346 4768 
C 326 4768 301 4761 301 4729 
C 301 4717 307 4710 314 4697 
C 621 4378 1402 3568 1402 1584 
C 1402 -407 627 -1217 314 -1537 
C 307 -1549 301 -1556 301 -1568 
C 301 -1600 326 -1600 346 -1600 
C 416 -1600 960 -1128 1274 -426 
C 1594 281 1683 969 1683 1581 
z
" transform="scale(0.015625)"/>
      </defs>
      <use xlink:href="#CMR17-4b" transform="scale(0.996264)"/>
      <use xlink:href="#CMR17-44" transform="translate(71.674777 0) scale(0.996264)"/>
      <use xlink:href="#CMR17-45" transform="translate(142.068333 0) scale(0.996264)"/>
      <use xlink:href="#CMR17-28" transform="translate(234.7306 0) scale(0.996264)"/>
      <use xlink:href="#CMR17-54" transform="translate(270.011368 0) scale(0.996264)"/>
      <use xlink:href="#CMR17-72" transform="translate(328.713993 0) scale(0.996264)"/>
      <use xlink:href="#CMR17-65" transform="translate(363.994761 0) scale(0.996264)"/>
      <use xlink:href="#CMR17-6e" transform="translate(404.480421 0) scale(0.996264)"/>
      <use xlink:href="#CMR17-64" transform="translate(455.375791 0) scale(0.996264)"/>
      <use xlink:href="#CMR17-29" transform="translate(506.271161 0) scale(0.996264)"/>
     </g>
    </g>
    <g id="PathCollection_2">
     <g>
      <use xlink:href="#m68eb8aa460" x="595.988532" y="62.927793" style="fill: #ff0000; stroke: #ff0000"/>
     </g>
    </g>
    <g id="text_22">
     <!-- Discrete Values -->
     <g transform="translate(617.588532 66.077793) scale(0.12 -0.12)">
      <use xlink:href="#CMR17-44" transform="scale(0.996264)"/>
      <use xlink:href="#CMR17-69" transform="translate(70.393556 0) scale(0.996264)"/>
      <use xlink:href="#CMR17-73" transform="translate(95.264614 0) scale(0.996264)"/>
      <use xlink:href="#CMR17-63" transform="translate(131.065952 0) scale(0.996264)"/>
      <use xlink:href="#CMR17-72" transform="translate(171.551612 0) scale(0.996264)"/>
      <use xlink:href="#CMR17-65" transform="translate(206.83238 0) scale(0.996264)"/>
      <use xlink:href="#CMR17-74" transform="translate(247.318041 0) scale(0.996264)"/>
      <use xlink:href="#CMR17-65" transform="translate(282.598809 0) scale(0.996264)"/>
      <use xlink:href="#CMR17-56" transform="translate(353.160435 0) scale(0.996264)"/>
      <use xlink:href="#CMR17-61" transform="translate(414.42561 0) scale(0.996264)"/>
      <use xlink:href="#CMR17-6c" transform="translate(460.116087 0) scale(0.996264)"/>
      <use xlink:href="#CMR17-75" transform="translate(484.987145 0) scale(0.996264)"/>
      <use xlink:href="#CMR17-65" transform="translate(535.882515 0) scale(0.996264)"/>
      <use xlink:href="#CMR17-73" transform="translate(576.368176 0) scale(0.996264)"/>
     </g>
    </g>
   </g>
  </g>
 </g>
 <defs>
  <clipPath id="p7e3cb552fc">
   <rect x="50.87281" y="28.922625" width="656.16719" height="357.863824"/>
  </clipPath>
 </defs>
</svg>
